<svg class="animated" id="freepik_stories-artist" xmlns="http://www.w3.org/2000/svg" viewBox="0 0 750 500" version="1.1" xmlns:xlink="http://www.w3.org/1999/xlink" xmlns:svgjs="http://svgjs.com/svgjs"><style>svg#freepik_stories-artist:not(.animated) .animable {opacity: 0;}svg#freepik_stories-artist.animated #freepik--background-complete--inject-9 {animation: 1s 1 forwards cubic-bezier(.36,-0.01,.5,1.38) slideUp;animation-delay: 0s;}svg#freepik_stories-artist.animated #freepik--paint-brush--inject-9 {animation: 1s 1 forwards cubic-bezier(.36,-0.01,.5,1.38) slideRight;animation-delay: 0s;}svg#freepik_stories-artist.animated #freepik--Plants--inject-9 {animation: 1s 1 forwards cubic-bezier(.36,-0.01,.5,1.38) slideDown;animation-delay: 0s;}svg#freepik_stories-artist.animated #freepik--Device--inject-9 {animation: 1s 1 forwards cubic-bezier(.36,-0.01,.5,1.38) slideDown;animation-delay: 0s;}svg#freepik_stories-artist.animated #freepik--Character--inject-9 {animation: 1s 1 forwards cubic-bezier(.36,-0.01,.5,1.38) zoomIn;animation-delay: 0s;}            @keyframes slideUp {                0% {                    opacity: 0;                    transform: translateY(30px);                }                100% {                    opacity: 1;                    transform: inherit;                }            }                    @keyframes slideRight {                0% {                    opacity: 0;                    transform: translateX(30px);                }                100% {                    opacity: 1;                    transform: translateX(0);                }            }                    @keyframes slideDown {                0% {                    opacity: 0;                    transform: translateY(-30px);                }                100% {                    opacity: 1;                    transform: translateY(0);                }            }                    @keyframes zoomIn {                0% {                    opacity: 0;                    transform: scale(0.5);                }                100% {                    opacity: 1;                    transform: scale(1);                }            }        </style><g id="freepik--background-complete--inject-9" style="transform-origin: 377.248px 251.051px 0px;" class="animable"><path d="M269.44,387.29a7.51,7.51,0,1,1-7.51-7.51A7.52,7.52,0,0,1,269.44,387.29Z" style="fill: rgb(245, 245, 245); transform-origin: 261.93px 387.29px 0px;" id="el28oawbq6h1s" class="animable"></path><path d="M601.56,85.83c-3.4,4.69-6,2.25-15.15,7.63-5,2.92-7.4,9.72-6.23,15.39s6.2,10.7,12,10.63c3.74,0,7.13-2,10.65-3.3s7.95-1.59,10.54,1.1c3.65,3.77,1.12,10.43-.73,14.69a12.72,12.72,0,0,0-1.12,5.59c.42,8.58,9.2,8.64,14,4.94,3.63-2.81,5.74-7.1,8.42-10.84s6.59-7.23,11.19-7c4.94.2,8.57,4.45,12.22,7.78s9.41,6,13.28,2.92c2.91-2.3,3.08-6.66,2.3-10.28s-2.24-7.24-1.7-10.91c.68-4.61,4.17-7.83,8.35-10.25a6.12,6.12,0,0,0-1-11l-.12,0c-3.7-1.25-7.7-1.49-11.32-3s-7-4.8-6.65-8.69c.38-4.62,5.69-8,3.68-13.15A7.87,7.87,0,0,0,657,63.13c-7-.23-11.66,4.83-16.79,8.65-4.15,3.1-9.67,5.54-14.38,3.4-5.31-2.41-7-9.37-11.74-12.72a10.6,10.6,0,0,0-13.38,16.38A4.78,4.78,0,0,1,601.56,85.83Z" style="fill: rgb(235, 235, 235); transform-origin: 631.231px 102.67px 0px;" id="el4ob5o43hyhr" class="animable"></path><g id="elxpl08e6dbl"><rect x="666.95" y="228.38" width="4.81" height="104.28" style="fill: rgb(224, 224, 224); transform-origin: 669.355px 280.52px 0px; transform: rotate(30.16deg);" class="animable"></rect></g><path d="M632.76,200l-51.52,88.66a.08.08,0,0,0,0,.1l59.53,34.59a.07.07,0,0,0,.1,0l51.51-88.66a.07.07,0,0,0,0-.09l-59.53-34.59A.06.06,0,0,0,632.76,200Z" style="fill: rgb(235, 235, 235); transform-origin: 636.809px 261.678px 0px;" id="elkjqt7m8lu6n" class="animable"></path><path d="M641.08,324.39,580.17,289a.08.08,0,0,1,0-.1l52.33-90s.06,0,.09,0l60.91,35.4a.06.06,0,0,1,0,.09l-52.32,90.05A.08.08,0,0,1,641.08,324.39Zm-58.73-36,58.15,33.79a.08.08,0,0,0,.1,0l50.71-87.28a.07.07,0,0,0,0-.09L633.14,201a.08.08,0,0,0-.1,0l-50.71,87.28A.08.08,0,0,0,582.35,288.42Z" style="fill: rgb(224, 224, 224); transform-origin: 636.836px 261.672px 0px;" id="el7o2ea25bqgo" class="animable"></path><path d="M635.58,208.92l-45.12,77.65a.07.07,0,0,0,0,.09l47.63,27.67a.07.07,0,0,0,.09,0l45.12-77.65a.07.07,0,0,0,0-.09l-47.63-27.68A.07.07,0,0,0,635.58,208.92Z" style="fill: rgb(255, 255, 255); transform-origin: 636.88px 261.622px 0px;" id="el6b9h4x5yccy" class="animable"></path><path d="M641.71,283.92,615,268.41a.07.07,0,0,1,0-.09L633.19,237a.05.05,0,0,1,.08,0L660,252.5a.07.07,0,0,1,0,.09L641.8,283.9A.07.07,0,0,1,641.71,283.92Z" style="fill: rgb(235, 235, 235); transform-origin: 637.5px 260.454px 0px;" id="el8t7rgglcxjp" class="animable"></path><path d="M641.88,278.88c0,.12-1.68-.07-4-1.83a10.67,10.67,0,0,1-3.28-4.2,10,10,0,0,1-.29-7.16A8.72,8.72,0,0,1,641,260a7.76,7.76,0,0,1,2.59,0,5.87,5.87,0,0,1,2.57,1.12,4.88,4.88,0,0,1,1.8,2.45,3.62,3.62,0,0,1-.68,3.36,5.3,5.3,0,0,1-2.73,1.65,9.86,9.86,0,0,1-2.88.31,12.85,12.85,0,0,1-5.62-1.42,11.1,11.1,0,0,1-4.45-4.16,10.66,10.66,0,0,1-1.5-6.11,9.26,9.26,0,0,1,2.51-5.88,9.44,9.44,0,0,1,5.51-2.84,8.53,8.53,0,0,1,3.14.19,7,7,0,0,1,2.78,1.5,5.12,5.12,0,0,1,1.66,2.84,4.75,4.75,0,0,1-.57,3.21,5.78,5.78,0,0,1-2.11,2.14,7.54,7.54,0,0,1-2.59.95,11.81,11.81,0,0,1-5-.19,11.2,11.2,0,0,1-4.18-2,9.44,9.44,0,0,1-2.7-3.35,8.7,8.7,0,0,1-.27-7.19,7.39,7.39,0,0,1,3.85-3.8,6.26,6.26,0,0,1,3.34-.49c.76.12,1.11.34,1.09.41s-.41.06-1.11.1a7,7,0,0,0-2.88.87,6.53,6.53,0,0,0-3,3.44,7.29,7.29,0,0,0,.55,5.85,8.44,8.44,0,0,0,5.75,4.12,9.86,9.86,0,0,0,4.05,0,4.27,4.27,0,0,0,3.08-2,2.37,2.37,0,0,0-.65-3.09,4.63,4.63,0,0,0-1.8-.94,6,6,0,0,0-2.16-.09,7,7,0,0,0-4,2.11,6.75,6.75,0,0,0-1.8,4.28,8.4,8.4,0,0,0,1.14,4.68,8.69,8.69,0,0,0,3.44,3.23,10.61,10.61,0,0,0,4.52,1.2,7.67,7.67,0,0,0,2.19-.2,2.94,2.94,0,0,0,1.54-.83,1.3,1.3,0,0,0,.28-1.22,2.68,2.68,0,0,0-1-1.32,3.7,3.7,0,0,0-1.59-.75,5.87,5.87,0,0,0-1.87-.05,6.83,6.83,0,0,0-3.32,1.47,6.72,6.72,0,0,0-2,2.75,8.73,8.73,0,0,0-.08,6,10.32,10.32,0,0,0,2.61,4C640.46,278.15,642,278.68,641.88,278.88Z" style="fill: rgb(224, 224, 224); transform-origin: 637.873px 260.574px 0px;" id="elvr6oqsbzvn" class="animable"></path><path d="M284.45,93s2,2.55,1.3,4.27-9.22,14.08-5.52,22.2,10.82,16.86,10.82,16.86l21-.83s9.7-16.73,9.27-22.16c-.71-9-7.67-18.11-7.67-18.11l1.56-3.44S295.49,86.9,284.45,93Z" style="fill: rgb(224, 224, 224); transform-origin: 300.318px 113.133px 0px;" id="el0qck8jro2x7h" class="animable"></path><path d="M351.24,47l1,11.7s-12.46,4-14.74,15.76-1.45,37.33-1.45,37.33l17.56,5.82s19.3-28.87,20.82-34.17-2.61-18-2.61-18l7.43-9.14S366.75,41.43,351.24,47Z" style="fill: rgb(224, 224, 224); transform-origin: 357.576px 81.6807px 0px;" id="eljnutiqfzg7e" class="animable"></path><path d="M339.18,80.31c-2.38-4.18-5.34-9.39-5-15,.15-2.64,1.14-4.71,2.78-5.82a6.49,6.49,0,0,1,5.84-.47,16.7,16.7,0,0,1,4.5,2.82l-1.52,1.9A14.32,14.32,0,0,0,342,61.27a4.09,4.09,0,0,0-3.65.2c-1.35.91-1.65,2.87-1.72,4-.28,4.93,2.49,9.79,4.71,13.69Z" style="fill: rgb(224, 224, 224); transform-origin: 340.727px 69.4238px 0px;" id="elw851inijm" class="animable"></path><path d="M369.59,92l-1.2-2.11a29.12,29.12,0,0,0,7.66-6.32,12.28,12.28,0,0,0,2.33-3.64,5.31,5.31,0,0,0,.08-3.78,4.65,4.65,0,0,0-3.29-2.6,7,7,0,0,0-4.55.7l-1.09-2.17a9.37,9.37,0,0,1,6.16-.9,7.12,7.12,0,0,1,5,4,7.6,7.6,0,0,1-.05,5.55,14.58,14.58,0,0,1-2.76,4.38A31.48,31.48,0,0,1,369.59,92Z" style="fill: rgb(224, 224, 224); transform-origin: 374.79px 81.5025px 0px;" id="elh7ivft0zzqj" class="animable"></path><path d="M379.22,56.33a17,17,0,0,1-4.37-.33,63.73,63.73,0,0,1-10.29-2.41,64.71,64.71,0,0,1-9.77-4.05,17,17,0,0,1-3.74-2.29,27.43,27.43,0,0,1,4,1.72,98.1,98.1,0,0,0,9.77,3.77A98,98,0,0,0,375,55.38,27.3,27.3,0,0,1,379.22,56.33Z" style="fill: rgb(235, 235, 235); transform-origin: 365.135px 51.8023px 0px;" id="el3v75zc54l6e" class="animable"></path><circle cx="542.47" cy="389.77" r="2.49" style="fill: rgb(224, 224, 224); transform-origin: 542.47px 389.77px 0px;" id="elbj8qyb6qs6" class="animable"></circle><circle cx="551.2" cy="399.12" r="2.49" style="fill: rgb(224, 224, 224); transform-origin: 551.2px 399.12px 0px;" id="els4nqdcgskkg" class="animable"></circle><circle cx="537.77" cy="402.98" r="2.49" style="fill: rgb(224, 224, 224); transform-origin: 537.77px 402.98px 0px;" id="elly6tl7wd0a" class="animable"></circle><circle cx="547.62" cy="411.38" r="2.49" style="fill: rgb(224, 224, 224); transform-origin: 547.62px 411.38px 0px;" id="el08wpgyz03wp5" class="animable"></circle><path d="M558.83,420.73a2.49,2.49,0,1,1-2.48-2.49A2.48,2.48,0,0,1,558.83,420.73Z" style="fill: rgb(224, 224, 224); transform-origin: 556.34px 420.73px 0px;" id="elp1yq6sb6mja" class="animable"></path><circle cx="542.92" cy="424.59" r="2.49" style="fill: rgb(224, 224, 224); transform-origin: 542.92px 424.59px 0px;" id="elxtq84dghsvd" class="animable"></circle><circle cx="561.74" cy="374.51" r="2.49" style="fill: rgb(224, 224, 224); transform-origin: 561.74px 374.51px 0px;" id="elayqu8jetvz" class="animable"></circle><circle cx="570.47" cy="383.86" r="2.49" style="fill: rgb(224, 224, 224); transform-origin: 570.47px 383.86px 0px;" id="ellqdd1kw6cb" class="animable"></circle><circle cx="557.04" cy="387.73" r="2.49" style="fill: rgb(224, 224, 224); transform-origin: 557.04px 387.73px 0px;" id="eleyy2sesyink" class="animable"></circle><circle cx="566.89" cy="396.12" r="2.49" style="fill: rgb(224, 224, 224); transform-origin: 566.89px 396.12px 0px;" id="elgsgd3pkaeno" class="animable"></circle><circle cx="575.62" cy="405.47" r="2.49" style="fill: rgb(224, 224, 224); transform-origin: 575.62px 405.47px 0px;" id="el2n41riryt0p" class="animable"></circle><circle cx="562.19" cy="409.33" r="2.49" style="fill: rgb(224, 224, 224); transform-origin: 562.19px 409.33px 0px;" id="elygvaeipg7ra" class="animable"></circle><path d="M572.24,419a2.49,2.49,0,1,1-2.48-2.48A2.48,2.48,0,0,1,572.24,419Z" style="fill: rgb(224, 224, 224); transform-origin: 569.75px 419.01px 0px;" id="elkeedj4o3tjs" class="animable"></path><circle cx="578.49" cy="428.39" r="2.49" style="fill: rgb(224, 224, 224); transform-origin: 578.49px 428.39px 0px;" id="elrzge9y5dpr" class="animable"></circle><path d="M567.55,432.26a2.49,2.49,0,1,1-2.49-2.49A2.48,2.48,0,0,1,567.55,432.26Z" style="fill: rgb(224, 224, 224); transform-origin: 565.06px 432.26px 0px;" id="elpdyqk0qfaj" class="animable"></path><path d="M577.39,440.65a2.49,2.49,0,1,1-2.48-2.49A2.48,2.48,0,0,1,577.39,440.65Z" style="fill: rgb(224, 224, 224); transform-origin: 574.9px 440.65px 0px;" id="elon27whmf5jk" class="animable"></path><circle cx="583.64" cy="450" r="2.49" style="fill: rgb(224, 224, 224); transform-origin: 583.64px 450px 0px;" id="el1ibe1i7hzyi" class="animable"></circle><circle cx="570.21" cy="453.86" r="2.49" style="fill: rgb(224, 224, 224); transform-origin: 570.21px 453.86px 0px;" id="el2grzity2zv8" class="animable"></circle><circle cx="589.03" cy="403.79" r="2.49" style="fill: rgb(224, 224, 224); transform-origin: 589.03px 403.79px 0px;" id="eltbtdip1bxtk" class="animable"></circle><circle cx="597.76" cy="413.14" r="2.49" style="fill: rgb(224, 224, 224); transform-origin: 597.76px 413.14px 0px;" id="elhdhvbwy9zeg" class="animable"></circle><circle cx="584.33" cy="417" r="2.49" style="fill: rgb(224, 224, 224); transform-origin: 584.33px 417px 0px;" id="elorncm6zj9t" class="animable"></circle><circle cx="594.18" cy="425.39" r="2.49" style="fill: rgb(224, 224, 224); transform-origin: 594.18px 425.39px 0px;" id="el2uhv817s2sv" class="animable"></circle><circle cx="602.91" cy="434.74" r="2.49" style="fill: rgb(224, 224, 224); transform-origin: 602.91px 434.74px 0px;" id="elobwb6u4lrap" class="animable"></circle><circle cx="589.48" cy="438.6" r="2.49" style="fill: rgb(224, 224, 224); transform-origin: 589.48px 438.6px 0px;" id="ellzssa5ipt2l" class="animable"></circle><path d="M580.92,358.82a2.49,2.49,0,1,1-2.48-2.49A2.48,2.48,0,0,1,580.92,358.82Z" style="fill: rgb(224, 224, 224); transform-origin: 578.43px 358.82px 0px;" id="elmqufp6zckak" class="animable"></path><circle cx="587.17" cy="368.17" r="2.49" style="fill: rgb(224, 224, 224); transform-origin: 587.17px 368.17px 0px;" id="elvno5zw5a9v" class="animable"></circle><circle cx="573.74" cy="372.03" r="2.49" style="fill: rgb(224, 224, 224); transform-origin: 573.74px 372.03px 0px;" id="el5jnk0p3xoa3" class="animable"></circle><path d="M586.07,380.42a2.49,2.49,0,1,1-2.48-2.48A2.49,2.49,0,0,1,586.07,380.42Z" style="fill: rgb(224, 224, 224); transform-origin: 583.58px 380.43px 0px;" id="elsouzr7ljbt9" class="animable"></path><circle cx="592.32" cy="389.77" r="2.49" style="fill: rgb(224, 224, 224); transform-origin: 592.32px 389.77px 0px;" id="els23dq9czbu" class="animable"></circle><path d="M581.37,393.63a2.49,2.49,0,1,1-2.48-2.48A2.48,2.48,0,0,1,581.37,393.63Z" style="fill: rgb(224, 224, 224); transform-origin: 578.88px 393.64px 0px;" id="elyp2669oo5t8" class="animable"></path><circle cx="597.71" cy="343.56" r="2.49" style="fill: rgb(224, 224, 224); transform-origin: 597.71px 343.56px 0px;" id="elwx2cg33h42r" class="animable"></circle><circle cx="606.44" cy="352.91" r="2.49" style="fill: rgb(224, 224, 224); transform-origin: 606.44px 352.91px 0px;" id="elvxj2cb7jthn" class="animable"></circle><path d="M595.5,356.77a2.49,2.49,0,1,1-2.49-2.48A2.5,2.5,0,0,1,595.5,356.77Z" style="fill: rgb(224, 224, 224); transform-origin: 593.01px 356.78px 0px;" id="elzt8z06v1wr" class="animable"></path><circle cx="602.86" cy="365.16" r="2.49" style="fill: rgb(224, 224, 224); transform-origin: 602.86px 365.16px 0px;" id="elwhd1u94lwil" class="animable"></circle><circle cx="611.59" cy="374.51" r="2.49" style="fill: rgb(224, 224, 224); transform-origin: 611.59px 374.51px 0px;" id="el878opnqd5lg" class="animable"></circle><circle cx="598.16" cy="378.38" r="2.49" style="fill: rgb(224, 224, 224); transform-origin: 598.16px 378.38px 0px;" id="el2ezxzjww0tp" class="animable"></circle><circle cx="605.73" cy="388.09" r="2.49" style="fill: rgb(224, 224, 224); transform-origin: 605.73px 388.09px 0px;" id="ell6k0ok88tzj" class="animable"></circle><circle cx="614.46" cy="397.44" r="2.49" style="fill: rgb(224, 224, 224); transform-origin: 614.46px 397.44px 0px;" id="ellu5n8sxhct" class="animable"></circle><circle cx="601.03" cy="401.3" r="2.49" style="fill: rgb(224, 224, 224); transform-origin: 601.03px 401.3px 0px;" id="el19wcj7q0o7y" class="animable"></circle><path d="M613.36,409.69a2.49,2.49,0,1,1-2.48-2.48A2.48,2.48,0,0,1,613.36,409.69Z" style="fill: rgb(224, 224, 224); transform-origin: 610.87px 409.7px 0px;" id="elx3q0ol19zo" class="animable"></path><path d="M622.1,419a2.49,2.49,0,1,1-2.49-2.48A2.49,2.49,0,0,1,622.1,419Z" style="fill: rgb(224, 224, 224); transform-origin: 619.61px 419.01px 0px;" id="ello805uexyk" class="animable"></path><circle cx="606.18" cy="422.91" r="2.49" style="fill: rgb(224, 224, 224); transform-origin: 606.18px 422.91px 0px;" id="el4vcgx5k0gx5" class="animable"></circle><circle cx="625" cy="372.83" r="2.49" style="fill: rgb(224, 224, 224); transform-origin: 625px 372.83px 0px;" id="elcaxaowshzjp" class="animable"></circle><circle cx="633.73" cy="382.18" r="2.49" style="fill: rgb(224, 224, 224); transform-origin: 633.73px 382.18px 0px;" id="el9zctgfsai6" class="animable"></circle><circle cx="620.3" cy="386.04" r="2.49" style="fill: rgb(224, 224, 224); transform-origin: 620.3px 386.04px 0px;" id="el5t6vgm93ecc" class="animable"></circle><circle cx="630.15" cy="394.43" r="2.49" style="fill: rgb(224, 224, 224); transform-origin: 630.15px 394.43px 0px;" id="elrivp1o3l2bb" class="animable"></circle><path d="M641.37,403.79a2.49,2.49,0,1,1-2.49-2.49A2.49,2.49,0,0,1,641.37,403.79Z" style="fill: rgb(224, 224, 224); transform-origin: 638.88px 403.79px 0px;" id="elrnkl9kfjcv" class="animable"></path><circle cx="625.45" cy="407.65" r="2.49" style="fill: rgb(224, 224, 224); transform-origin: 625.45px 407.65px 0px;" id="el90hjyqnf5mh" class="animable"></circle><path d="M420.09,403.48c3.62-4.53,6.06-2,15.49-6.92,5.13-2.69,7.83-9.37,6.93-15.09s-5.7-11-11.49-11.17c-3.74-.13-7.22,1.72-10.79,2.81s-8,1.22-10.48-1.58c-3.47-3.95-.64-10.48,1.41-14.65a12.59,12.59,0,0,0,1.37-5.53c0-8.59-8.79-9.05-13.73-5.58-3.76,2.65-6.07,6.83-8.91,10.44s-6.92,6.92-11.5,6.52c-4.93-.43-8.36-4.84-11.86-8.34s-9.12-6.41-13.13-3.52c-3,2.17-3.38,6.51-2.77,10.16s1.91,7.34,1.2,11c-.89,4.58-4.53,7.64-8.81,9.86a6.13,6.13,0,0,0,.46,11.09l.11,0c3.64,1.42,7.63,1.85,11.18,3.49s6.74,5.12,6.24,9c-.59,4.6-6.05,7.7-4.28,13a7.86,7.86,0,0,0,6.92,5.17c7,.55,11.87-4.29,17.17-7.88,4.28-2.9,9.91-5.08,14.52-2.73,5.2,2.65,6.53,9.68,11.14,13.25A10.6,10.6,0,0,0,420.6,410.5,4.79,4.79,0,0,1,420.09,403.48Z" style="fill: rgb(235, 235, 235); transform-origin: 391.201px 386.196px 0px;" id="elx01x1ajkquo" class="animable"></path><path d="M68.73,306.83c-.79,5.73-4.19,4.79-9.75,13.87-3,4.94-1.93,12.06,1.78,16.51s10.52,6.51,15.59,3.71c3.27-1.81,5.31-5.17,7.82-7.95s6.25-5.15,9.81-4c5,1.6,5.92,8.67,6.3,13.3a12.73,12.73,0,0,0,1.65,5.45c4.42,7.36,12.19,3.27,14.66-2.25,1.87-4.2,1.7-9,2.3-13.53s2.4-9.48,6.53-11.49c4.45-2.15,9.66-.12,14.46,1.09s11.12.83,13.08-3.71c1.47-3.4-.44-7.32-2.83-10.14s-5.39-5.33-6.65-8.81c-1.58-4.38,0-8.87,2.51-13a6.11,6.11,0,0,0-6.07-9.28l-.12,0c-3.85.64-7.5,2.32-11.38,2.73s-8.42-.94-10-4.52c-1.85-4.26,1.25-9.72-3-13.34a7.86,7.86,0,0,0-8.59-.89c-6.28,3.1-8,9.76-10.71,15.56-2.19,4.68-5.91,9.44-11.07,9.79-5.82.38-10.56-5-16.35-5.68a10.61,10.61,0,0,0-4.07,20.76A4.79,4.79,0,0,1,68.73,306.83Z" style="fill: rgb(235, 235, 235); transform-origin: 105.17px 305.699px 0px;" id="elxlsjuixwlb9" class="animable"></path><g id="el4ysy09ll2w7"><circle cx="497.38" cy="429.26" r="12.37" style="fill: rgb(235, 235, 235); transform-origin: 497.38px 429.26px 0px; transform: rotate(-87.7094deg);" class="animable"></circle></g><path d="M493.27,428.5a2,2,0,1,1,1.55-2.4A2,2,0,0,1,493.27,428.5Z" style="fill: rgb(255, 255, 255); transform-origin: 492.869px 426.541px 0px;" id="el4fzmhw2a6ef" class="animable"></path><path d="M498.37,424.48a1.18,1.18,0,1,1,.9-1.39A1.18,1.18,0,0,1,498.37,424.48Z" style="fill: rgb(255, 255, 255); transform-origin: 498.114px 423.328px 0px;" id="elrgv1dtlh3kg" class="animable"></path><path d="M491.93,418.16c-.2.1-12.41-8.17-14-5s6.32,13.25,16.15,21.2,21.14,14.72,23.12,11.78-8-13.37-8-13.37l-.61,1.63s6.22,6.27,4.9,9S503.76,441,495,433.17s-15.39-15.72-13.83-17.51,9.12,3.44,9.12,3.44Z" style="fill: rgb(235, 235, 235); transform-origin: 497.593px 429.638px 0px;" id="elxvgx3klcztm" class="animable"></path><path d="M504.48,420.77c-.1.12-1-.55-2.57-1.18A11.38,11.38,0,0,0,489.63,422c-1.25,1.18-1.8,2.12-1.94,2s.26-1.14,1.45-2.52a10.78,10.78,0,0,1,2.44-2.06,11.21,11.21,0,0,1,3.66-1.44,11,11,0,0,1,3.92,0,10.36,10.36,0,0,1,3,1C503.82,419.81,504.55,420.69,504.48,420.77Z" style="fill: rgb(255, 255, 255); transform-origin: 496.074px 420.907px 0px;" id="elmktfy53avzo" class="animable"></path><path d="M211.78,83.57,196,87.6l-.76,4.81a9.85,9.85,0,0,0,0,3.82,3.08,3.08,0,0,0,2.21,2.38,13.12,13.12,0,0,0,4.58-.33l.31,1.21-14.83,3.8-.31-1.22a6.83,6.83,0,0,0,3.44-3c.75-1.35,1.45-3.91,2.09-7.7l6.85-39.64.62-.16L225.66,84q3.63,4.6,5.45,5.58a5.38,5.38,0,0,0,3.46.37l.31,1.22-21.56,5.51L213,95.48l.88-.23a6.91,6.91,0,0,0,3.47-1.66,1.8,1.8,0,0,0,.33-1.69,4.26,4.26,0,0,0-.5-1.17c-.1-.18-.64-.92-1.62-2.21ZM210,81.42,199.47,67.77l-2.91,17.1Z" style="fill: rgb(224, 224, 224); transform-origin: 211.04px 77.43px 0px;" id="elm38ru0oav7o" class="animable"></path></g><g id="freepik--paint-brush--inject-9" style="transform-origin: 586.546px 189.972px 0px;" class="animable"><path d="M617.53,295.06h0a3,3,0,0,1-3.68-2l-48.07-161,9.07-2.51,44.77,161.81A3,3,0,0,1,617.53,295.06Z" style="fill: rgb(69, 90, 100); transform-origin: 592.756px 212.362px 0px;" id="eln3g3v2mdbi" class="animable"></path><path d="M565.78,132.06c-.31-1.11-3.83-26-3.83-26l2.83-.78,10.07,24.26Z" style="fill: rgb(224, 224, 224); transform-origin: 568.4px 118.67px 0px;" id="el1q6ovypjg6e" class="animable"></path><polyline points="564.78 105.29 562.98 84.77 555.91 86.46 559.15 98.19 554.67 86.8 553.36 87.16 561.95 106.07 563.75 105.57" style="fill: rgb(235, 153, 110); transform-origin: 559.07px 95.42px 0px;" id="elz0kwznuibbb" class="animable"></polyline></g><g id="freepik--Plants--inject-9" style="transform-origin: 384.47px 254.015px 0px;" class="animable"><path d="M507,113.05a4.69,4.69,0,0,0-1.79,3.81,40,40,0,0,0,.42,4.35,21.05,21.05,0,0,0,.44,4.13c.73,2.44,2.88,4.15,4.91,5.69a19.71,19.71,0,0,0,2.35-3.53,6.56,6.56,0,0,0,.62-4.12,23.76,23.76,0,0,0-1.26-3.17c-.5-1.33-.66-2.77-1.23-4.07a7.17,7.17,0,0,0-4.18-3.88" style="fill: rgb(63, 84, 255); transform-origin: 509.629px 121.645px 0px;" id="elwrkzckpi15q" class="animable"></path><path d="M510.19,130.22c-.2,0,0-4.11-.81-9.07s-2.33-8.78-2.14-8.86a9.09,9.09,0,0,1,1.13,2.45A35.69,35.69,0,0,1,510,121a35.2,35.2,0,0,1,.46,6.5A9.24,9.24,0,0,1,510.19,130.22Z" style="fill: rgb(38, 50, 56); transform-origin: 508.848px 121.255px 0px;" id="elt5vtdkf13k" class="animable"></path><path d="M507.94,113.15a4.65,4.65,0,0,0,3.72,2,35.45,35.45,0,0,0,4.36-.21,21.24,21.24,0,0,0,4.15-.23c2.48-.61,4.29-2.67,5.93-4.63a19.7,19.7,0,0,0-3.41-2.51,6.54,6.54,0,0,0-4.09-.83,22.24,22.24,0,0,0-3.22,1.1c-1.36.44-2.81.53-4.14,1a7.18,7.18,0,0,0-4.07,4" style="fill: rgb(63, 84, 255); transform-origin: 516.635px 110.921px 0px;" id="elr9up81f6bdj" class="animable"></path><path d="M525.25,110.76c0,.2-4.11-.22-9.1.37s-8.89,1.89-8.95,1.7a8.83,8.83,0,0,1,2.5-1,35.73,35.73,0,0,1,12.88-1.48A9.1,9.1,0,0,1,525.25,110.76Z" style="fill: rgb(38, 50, 56); transform-origin: 516.225px 111.558px 0px;" id="elrxcik4i2qme" class="animable"></path><path d="M506.54,112a4.69,4.69,0,0,0-.76-4.15,37.14,37.14,0,0,0-2.86-3.3,20.39,20.39,0,0,0-2.76-3.1c-2-1.57-4.75-1.72-7.3-1.79a19.29,19.29,0,0,0,.14,4.23,6.58,6.58,0,0,0,1.88,3.72,22.53,22.53,0,0,0,2.86,1.85c1.18.79,2.16,1.87,3.37,2.61a7.22,7.22,0,0,0,5.65.73" style="fill: rgb(63, 84, 255); transform-origin: 499.782px 106.368px 0px;" id="elwpj8uokk0lt" class="animable"></path><path d="M493.93,99.92c.17-.11,2.38,3.36,5.93,6.92s7,5.8,6.88,6a9.11,9.11,0,0,1-2.34-1.34,35.27,35.27,0,0,1-5-4.18,34.66,34.66,0,0,1-4.14-5A9.17,9.17,0,0,1,493.93,99.92Z" style="fill: rgb(38, 50, 56); transform-origin: 500.337px 106.379px 0px;" id="el2qc3iyxwxrp" class="animable"></path><path d="M505.87,112.84a4.68,4.68,0,0,0-4.2.12,36.56,36.56,0,0,0-3.7,2.34,19.78,19.78,0,0,0-3.48,2.26c-1.86,1.75-2.41,4.44-2.87,7a20.61,20.61,0,0,0,4.21.5,6.52,6.52,0,0,0,4-1.31,21.94,21.94,0,0,0,2.25-2.55c1-1,2.18-1.84,3.09-2.94a7.16,7.16,0,0,0,1.57-5.47" style="fill: rgb(63, 84, 255); transform-origin: 499.21px 118.73px 0px;" id="el8ex9r0dgz3c" class="animable"></path><path d="M492,123.48c-.08-.18,3.68-1.84,7.73-4.82s6.79-6,6.94-5.9a9.14,9.14,0,0,1-1.68,2.11,33.92,33.92,0,0,1-4.88,4.31,35.56,35.56,0,0,1-5.59,3.35A8.69,8.69,0,0,1,492,123.48Z" style="fill: rgb(38, 50, 56); transform-origin: 499.334px 118.119px 0px;" id="elte9heseos1s" class="animable"></path><path d="M508.09,111.5a4.68,4.68,0,0,0,3.33-2.57,36.46,36.46,0,0,0,1.61-4.06,20.87,20.87,0,0,0,1.5-3.88c.46-2.51-.67-5-1.78-7.31a19.66,19.66,0,0,0-3.69,2.08,6.56,6.56,0,0,0-2.44,3.38,23.87,23.87,0,0,0-.32,3.39c-.16,1.41-.67,2.77-.77,4.19a7.23,7.23,0,0,0,2,5.36" style="fill: rgb(63, 84, 255); transform-origin: 510.078px 102.88px 0px;" id="elb0294am7fvw" class="animable"></path><path d="M513,94.74c.18.1-1.89,3.66-3.41,8.45s-1.94,8.87-2.14,8.85a9,9,0,0,1,.11-2.69A36,36,0,0,1,509,103a35.17,35.17,0,0,1,2.55-6A9.15,9.15,0,0,1,513,94.74Z" style="fill: rgb(38, 50, 56); transform-origin: 510.204px 103.39px 0px;" id="el0tg57s1pvk6n" class="animable"></path><path d="M509,113.7a1.75,1.75,0,1,1-.38-2.45A1.76,1.76,0,0,1,509,113.7Z" style="fill: rgb(250, 250, 250); transform-origin: 507.587px 112.664px 0px;" id="elvmatwzs092j" class="animable"></path><path d="M279.27,379c-.63,2.66.63,5.46,2.44,7.51s4.11,3.59,6.15,5.42,3.65,3.78,5.9,5.09c4.13,2.42,9.26,2,14,1.5a36.41,36.41,0,0,0-1.32-7.84,12.26,12.26,0,0,0-4.43-6.45c-1.75-1.21-3.86-1.77-5.78-2.71-2.39-1.18-4.47-2.95-6.92-4a13.55,13.55,0,0,0-10.69.05" style="fill: rgb(63, 84, 255); transform-origin: 293.19px 387.676px 0px;" id="el9du0fx9p7tc" class="animable"></path><path d="M305.73,398.34c-.29.25-5.25-5.65-12.75-11.37s-14.45-9-14.28-9.38c.06-.14,1.89.5,4.69,1.9a66.62,66.62,0,0,1,19.29,14.81C304.76,396.65,305.85,398.25,305.73,398.34Z" style="fill: rgb(38, 50, 56); transform-origin: 292.218px 387.959px 0px;" id="el81b36dpeh0f" class="animable"></path><path d="M280.75,377.87c2.63.76,5.48-.37,7.62-2.07s3.79-3.93,5.72-5.87,4-3.47,5.37-5.65c2.62-4,2.45-9.15,2.19-13.93a36.69,36.69,0,0,0-7.9.93,12.25,12.25,0,0,0-6.65,4.11c-1.3,1.69-2,3.78-3,5.64-1.3,2.33-3.16,4.32-4.34,6.71a13.5,13.5,0,0,0-.48,10.68" style="fill: rgb(63, 84, 255); transform-origin: 290.096px 364.385px 0px;" id="elul814ise9z9" class="animable"></path><path d="M301.38,352.39c.24.3-5.91,5-12,12.18s-9.74,14-10.07,13.8c-.14-.07.59-1.86,2.12-4.59a67.21,67.21,0,0,1,7-10,66,66,0,0,1,8.73-8.54C299.64,353.28,301.29,352.27,301.38,352.39Z" style="fill: rgb(38, 50, 56); transform-origin: 290.34px 365.377px 0px;" id="el6lsz79396eb" class="animable"></path><path d="M277.39,378.13c-1-2.54-3.69-4.07-6.35-4.7s-5.44-.54-8.15-.85-5.17-.95-7.76-.72c-4.77.43-8.7,3.75-12.29,6.92a36.42,36.42,0,0,0,5.62,5.62,12.36,12.36,0,0,0,7.35,2.68c2.13,0,4.18-.8,6.29-1.15,2.63-.43,5.34-.19,7.95-.75a13.52,13.52,0,0,0,8.68-6.24" style="fill: rgb(63, 84, 255); transform-origin: 260.785px 379.446px 0px;" id="elf38xbvh7fok" class="animable"></path><path d="M244.6,377.72c.09-.37,7.56,1.56,17,1.86s17-1,17.07-.64c0,.15-1.83.69-4.92,1.17a66.26,66.26,0,0,1-24.31-.87C246.38,378.54,244.57,377.87,244.6,377.72Z" style="fill: rgb(38, 50, 56); transform-origin: 261.635px 379.258px 0px;" id="el5co8vz6bu3k" class="animable"></path><path d="M277.53,380.09c-2.66.64-4.58,3-5.61,5.57s-1.34,5.3-2.06,7.94-1.72,5-1.88,7.56c-.29,4.77,2.4,9.17,5,13.19a36.8,36.8,0,0,0,6.4-4.71,12.36,12.36,0,0,0,3.76-6.86c.29-2.12-.16-4.26-.19-6.39,0-2.67.62-5.32.46-8a13.5,13.5,0,0,0-4.87-9.52" style="fill: rgb(63, 84, 255); transform-origin: 275.697px 396.61px 0px;" id="elz5io40bll9" class="animable"></path><path d="M272.19,412.44c-.35-.14,2.68-7.23,4.4-16.51s1.55-17,1.93-17c.15,0,.4,1.91.42,5a67,67,0,0,1-1.16,12.16,65.31,65.31,0,0,1-3.36,11.74C273.27,410.81,272.33,412.5,272.19,412.44Z" style="fill: rgb(38, 50, 56); transform-origin: 275.551px 395.686px 0px;" id="elk24elkqjdgk" class="animable"></path><path d="M278.85,375.42c1.77-2.09,1.92-5.15,1.25-7.8s-2-5.08-3-7.63-1.53-5-2.93-7.22c-2.58-4-7.34-6-11.8-7.73a37.1,37.1,0,0,0-2.4,7.58,12.32,12.32,0,0,0,1,7.76c1,1.88,2.63,3.34,3.91,5.05,1.59,2.14,2.64,4.66,4.33,6.72a13.47,13.47,0,0,0,9.54,4.83" style="fill: rgb(63, 84, 255); transform-origin: 270.102px 361.01px 0px;" id="ele1jvh4wlv5u" class="animable"></path><path d="M264.12,346.12c.37-.09,2.1,7.43,6.16,15.94s8.74,14.63,8.43,14.86c-.11.1-1.45-1.31-3.3-3.83a66.7,66.7,0,0,1-10.42-22C264.22,348.08,264,346.16,264.12,346.12Z" style="fill: rgb(38, 50, 56); transform-origin: 271.407px 361.522px 0px;" id="el30pqqeehnt7" class="animable"></path><path d="M282.94,377.22a3.3,3.3,0,1,1-3.68-2.85A3.3,3.3,0,0,1,282.94,377.22Z" style="fill: rgb(250, 250, 250); transform-origin: 279.667px 377.645px 0px;" id="el5cwa6fk1qea" class="animable"></path></g><g id="freepik--Device--inject-9" style="transform-origin: 408.53px 231.968px 0px;" class="animable"><g id="elapx5r49ie6c"><rect x="222.48" y="134.61" width="372.12" height="242.74" rx="28.83" style="fill: rgb(38, 50, 56); transform-origin: 408.54px 255.98px 0px; transform: rotate(7.82deg);" class="animable"></rect></g><g id="el3rfoqoma8s"><rect x="262.7" y="154.71" width="310.98" height="205.35" style="fill: rgb(235, 235, 235); transform-origin: 418.19px 257.385px 0px; transform: rotate(7.82deg);" class="animable"></rect></g><path d="M558.69,380.84l-.49-.07L249.61,338.38l.07-.5,28-203.94.49.07L586.78,176.4l-.07.5Zm-308-43.32,307.1,42.19,27.81-202.45-307.1-42.19Z" style="fill: rgb(69, 90, 100); transform-origin: 418.195px 257.39px 0px;" id="elivnn7p80fcf" class="animable"></path><path d="M605.74,179.51c0,.15-82.08-11-183.26-24.91s-183.24-25.29-183.22-25.43,82.07,11,183.29,24.91S605.76,179.37,605.74,179.51Z" style="fill: rgb(69, 90, 100); transform-origin: 422.5px 154.34px 0px;" id="elnmnfx8j45x" class="animable"></path><path d="M577.8,383c0,.15-82.09-11-183.27-24.91S211.3,332.75,211.32,332.61s82.06,11,183.28,24.92S577.82,382.81,577.8,383Z" style="fill: rgb(69, 90, 100); transform-origin: 394.56px 357.805px 0px;" id="elfqy1h9bj3x9" class="animable"></path><path d="M257.65,231.52a24.43,24.43,0,0,0-.07-3.31,13.45,13.45,0,0,0-3.88-7.92,13.3,13.3,0,0,0-12.21-3.56,12.2,12.2,0,0,0-3.56,1.33,12.62,12.62,0,0,0-3.16,2.41A13.18,13.18,0,0,0,232.64,236a13.35,13.35,0,0,0,5.46,5.42,13.38,13.38,0,0,0,18.59-6.72,23.15,23.15,0,0,0,1-3.17,5,5,0,0,1-.11.86,5.57,5.57,0,0,1-.22,1,9.28,9.28,0,0,1-.44,1.37A13.6,13.6,0,0,1,245,243.38a13.76,13.76,0,0,1-7.07-1.54,13.26,13.26,0,0,1-3.2-2.32,13.09,13.09,0,0,1-2.49-3.29,13.67,13.67,0,0,1,2.21-16.11,12.7,12.7,0,0,1,3.29-2.49,12.84,12.84,0,0,1,3.7-1.37,13.69,13.69,0,0,1,7.23.42,13.57,13.57,0,0,1,9.16,11.51,9,9,0,0,1,.06,1.43,6.32,6.32,0,0,1-.06,1A5.33,5.33,0,0,1,257.65,231.52Z" style="fill: rgb(69, 90, 100); transform-origin: 244.229px 229.679px 0px;" id="el9oe64n5uzow" class="animable"></path><path d="M248.75,230.3c-.05,0,0-.41-.09-1.1a4.43,4.43,0,0,0-1.32-2.57,4.3,4.3,0,1,0-.94,6.83,4.53,4.53,0,0,0,2-2.12c.28-.65.33-1.05.38-1s0,.1,0,.29a3.16,3.16,0,0,1-.19.82,4.56,4.56,0,0,1-2,2.37,4.71,4.71,0,0,1-4.53.11,4.74,4.74,0,0,1,1.22-8.86,4.67,4.67,0,0,1,4.32,1.34,4.42,4.42,0,0,1,1.26,2.8,3.1,3.1,0,0,1,0,.85C248.8,230.2,248.77,230.3,248.75,230.3Z" style="fill: rgb(69, 90, 100); transform-origin: 244.188px 229.715px 0px;" id="elmdd1nn5536d" class="animable"></path><path d="M256.56,224.07a19.58,19.58,0,0,1-4,2.09,19.86,19.86,0,0,1-4.2,1.61,19.32,19.32,0,0,1,4-2.09A19.83,19.83,0,0,1,256.56,224.07Z" style="fill: rgb(69, 90, 100); transform-origin: 252.46px 225.92px 0px;" id="elqq2ldtrwpy8" class="animable"></path><path d="M249.52,201.84a9,9,0,0,0,1.71-.15,5.18,5.18,0,0,0,3.5-2.74,9.14,9.14,0,0,0,.68-3.11c.07-.58.18-1.2.21-1.79a5,5,0,0,0-2.84-4.68,6.06,6.06,0,0,0-2-.52l-2.24-.3a5,5,0,0,0-3.93,1.17,5.08,5.08,0,0,0-1.75,3.45c-.09.65-.18,1.29-.27,1.91a6.18,6.18,0,0,0-.09,1.75,5,5,0,0,0,3.39,4.27,13,13,0,0,0,2,.41,12.34,12.34,0,0,1,1.71.33,10,10,0,0,1-1.73-.13,11.81,11.81,0,0,1-2-.33,5.38,5.38,0,0,1-3.72-4.5,6.45,6.45,0,0,1,.07-1.86c.08-.63.16-1.26.25-1.92a5.5,5.5,0,0,1,6.23-5.07l2.23.31a6.51,6.51,0,0,1,2.19.57,5.5,5.5,0,0,1,2.79,3.18,5.44,5.44,0,0,1,.29,2c-.05.67-.16,1.24-.24,1.83a9.18,9.18,0,0,1-.78,3.22,5.33,5.33,0,0,1-3.79,2.77A3.74,3.74,0,0,1,249.52,201.84Z" style="fill: rgb(69, 90, 100); transform-origin: 249.159px 194.988px 0px;" id="ely7hpl3wree8" class="animable"></path><path d="M252.29,181.69a10,10,0,0,0,1.7-.15,5.17,5.17,0,0,0,3.51-2.74,9.19,9.19,0,0,0,.68-3.11c.07-.58.18-1.2.21-1.79a4.93,4.93,0,0,0-.28-1.81,5.06,5.06,0,0,0-2.56-2.87,5.9,5.9,0,0,0-2-.52l-2.24-.3a5,5,0,0,0-3.93,1.16,5.13,5.13,0,0,0-1.75,3.45c-.09.66-.18,1.29-.27,1.91a5.89,5.89,0,0,0-.09,1.76,5,5,0,0,0,1.24,2.83,5.07,5.07,0,0,0,2.14,1.44,12.06,12.06,0,0,0,2,.4,11.64,11.64,0,0,1,1.71.34,9.73,9.73,0,0,1-1.74-.14,11.58,11.58,0,0,1-2-.32,5.38,5.38,0,0,1-3.72-4.5,6.91,6.91,0,0,1,.06-1.87c.09-.62.17-1.26.26-1.91a5.56,5.56,0,0,1,1.88-3.77,5.47,5.47,0,0,1,4.34-1.3l2.24.31a6.51,6.51,0,0,1,2.19.57,5.51,5.51,0,0,1,2.79,3.17,5.75,5.75,0,0,1,.29,2c-.05.66-.16,1.24-.24,1.83a9.58,9.58,0,0,1-.78,3.21,5.27,5.27,0,0,1-3.8,2.77A3.64,3.64,0,0,1,252.29,181.69Z" style="fill: rgb(69, 90, 100); transform-origin: 251.908px 174.832px 0px;" id="elssbar10ywlb" class="animable"></path><path d="M237.61,288.55a10,10,0,0,0,1.7-.15,5.2,5.2,0,0,0,3.51-2.74,9.19,9.19,0,0,0,.68-3.11c.07-.58.18-1.2.21-1.79a4.93,4.93,0,0,0-.28-1.81,5.06,5.06,0,0,0-2.56-2.87,5.9,5.9,0,0,0-2-.52l-2.24-.31a5,5,0,0,0-3.93,1.17,5.13,5.13,0,0,0-1.75,3.45c-.09.66-.18,1.29-.27,1.91a5.89,5.89,0,0,0-.09,1.76,5,5,0,0,0,1.24,2.83,5.07,5.07,0,0,0,2.14,1.44,12.06,12.06,0,0,0,2,.4,11.25,11.25,0,0,1,1.71.34,11.1,11.1,0,0,1-1.74-.14,11.58,11.58,0,0,1-2-.32,5.38,5.38,0,0,1-3.72-4.5,6.91,6.91,0,0,1,.06-1.87c.09-.62.17-1.26.26-1.91a5.56,5.56,0,0,1,1.88-3.77,5.47,5.47,0,0,1,4.34-1.3l2.24.31a6.51,6.51,0,0,1,2.19.57,5.51,5.51,0,0,1,2.79,3.17,5.75,5.75,0,0,1,.29,2c0,.66-.16,1.24-.24,1.83a9.58,9.58,0,0,1-.78,3.21,5.27,5.27,0,0,1-3.8,2.77A3.64,3.64,0,0,1,237.61,288.55Z" style="fill: rgb(69, 90, 100); transform-origin: 237.228px 281.692px 0px;" id="elo53cvfd0z7b" class="animable"></path><path d="M240.38,268.4a10.93,10.93,0,0,0,1.7-.16,5.19,5.19,0,0,0,3.51-2.74,9.09,9.09,0,0,0,.68-3.11c.07-.57.18-1.2.21-1.78a5.15,5.15,0,0,0-.28-1.81,5,5,0,0,0-2.57-2.87,5.78,5.78,0,0,0-2-.52l-2.24-.31a5,5,0,0,0-3.93,1.17,5.08,5.08,0,0,0-1.75,3.45c-.09.65-.18,1.29-.27,1.91a6.25,6.25,0,0,0-.1,1.76,5.15,5.15,0,0,0,1.25,2.83,5.27,5.27,0,0,0,2.14,1.44,14.64,14.64,0,0,0,2,.4,10.18,10.18,0,0,1,1.71.34,12.83,12.83,0,0,1-1.74-.14,11.72,11.72,0,0,1-2-.33,5.32,5.32,0,0,1-2.32-1.46,5.43,5.43,0,0,1-1.41-3,6.89,6.89,0,0,1,.07-1.87c.08-.62.17-1.26.26-1.92a5.58,5.58,0,0,1,1.88-3.77,5.5,5.5,0,0,1,4.34-1.29l2.24.3a6.53,6.53,0,0,1,2.19.58,5.51,5.51,0,0,1,2.79,3.17,5.66,5.66,0,0,1,.29,2c-.05.67-.16,1.24-.24,1.83a9.4,9.4,0,0,1-.79,3.22,5.25,5.25,0,0,1-3.79,2.77A3.81,3.81,0,0,1,240.38,268.4Z" style="fill: rgb(69, 90, 100); transform-origin: 239.985px 261.566px 0px;" id="eliki19yyujan" class="animable"></path><path d="M356.85,344.47a13.45,13.45,0,0,0-14.69-18.89,14.43,14.43,0,0,0-20.5-15.27,10,10,0,1,0-18.87,6.88,9.38,9.38,0,0,0-11.42,13.73c-7.09-4.38-17.95.92-18.85,9.2l91.72,12.56C363.76,351.37,362.28,345.46,356.85,344.47Z" style="fill: rgb(224, 224, 224); transform-origin: 318.38px 328.192px 0px;" id="elbgdhey7rtdb" class="animable"></path><path d="M522.37,367.63a13.44,13.44,0,0,0-14.68-18.89,14.44,14.44,0,0,0-20.51-15.27,10,10,0,1,0-18.87,6.88,9.38,9.38,0,0,0-11.42,13.73c-7.09-4.38-17.95.92-18.85,9.2l91.72,12.56C529.28,374.53,527.8,368.62,522.37,367.63Z" style="fill: rgb(224, 224, 224); transform-origin: 483.9px 351.352px 0px;" id="el9bef9egwaah" class="animable"></path><path d="M431.47,362.09a23.11,23.11,0,0,0,1.93-15.25,15.25,15.25,0,0,0-4.74-8.5,9.15,9.15,0,0,0-9.27-1.68,13.32,13.32,0,0,0-14.55-15.13,10.27,10.27,0,0,0-11.27-12.94c2.33-5-1.43-10.86-6.64-12.68l-1.78-.25s-11.21-1.85-12.63-1.77c-5.51.32-10.73,4.92-9.87,10.37a10.28,10.28,0,0,0-14.39,9.35,13.34,13.34,0,0,0-18.15,10.56,9.12,9.12,0,0,0-9.36-.93,15.18,15.18,0,0,0-6.89,6.87,23.05,23.05,0,0,0-2.33,15.2Z" style="fill: rgb(255, 255, 255); transform-origin: 372.524px 327.989px 0px;" id="el9m21lpw71s" class="animable"></path><path d="M489.63,370.23A23.05,23.05,0,0,0,491.56,355a15.13,15.13,0,0,0-4.74-8.5,9.13,9.13,0,0,0-9.26-1.68A13.33,13.33,0,0,0,463,329.67a10.29,10.29,0,0,0-11.27-12.95c2.32-5-1.44-10.86-6.64-12.67l-1.78-.25S432.1,302,430.68,302c-5.5.32-10.73,4.92-9.86,10.37a10.28,10.28,0,0,0-14.39,9.35,13.33,13.33,0,0,0-18.15,10.56,9.14,9.14,0,0,0-9.37-.93,15.18,15.18,0,0,0-6.89,6.87,23.11,23.11,0,0,0-2.33,15.2Z" style="fill: rgb(255, 255, 255); transform-origin: 430.685px 336.115px 0px;" id="el03hbq4etmowa" class="animable"></path><polygon points="386.08 291.65 373.9 290.28 377.06 267.74 389.23 269.11 386.08 291.65" style="fill: rgb(63, 84, 255); transform-origin: 381.565px 279.695px 0px;" id="elxfxghzj5oth" class="animable"></polygon><path d="M388.88,276.5l-13.31-1.87a.87.87,0,0,1-.75-1h0a.89.89,0,0,1,1-.76l13.31,1.87a.87.87,0,0,1,.75,1h0A.89.89,0,0,1,388.88,276.5Z" style="fill: rgb(63, 84, 255); transform-origin: 382.35px 274.685px 0px;" id="elq8somx1yjma" class="animable"></path><path d="M388.39,280l-13.31-1.86a.88.88,0,0,1-.75-1h0a.88.88,0,0,1,1-.75l13.3,1.86a.89.89,0,0,1,.76,1h0A.89.89,0,0,1,388.39,280Z" style="fill: rgb(63, 84, 255); transform-origin: 381.859px 278.194px 0px;" id="el8cjiho2ulke" class="animable"></path><path d="M387.9,283.53l-13.31-1.86a.89.89,0,0,1-.75-1h0a.87.87,0,0,1,1-.75l13.31,1.86a.89.89,0,0,1,.76,1h0A.89.89,0,0,1,387.9,283.53Z" style="fill: rgb(63, 84, 255); transform-origin: 381.375px 281.724px 0px;" id="elif27sp2bvp" class="animable"></path><path d="M387.41,287.05l-13.31-1.87a.88.88,0,0,1-.76-1h0a.89.89,0,0,1,1-.75l13.31,1.86a.89.89,0,0,1,.75,1h0A.88.88,0,0,1,387.41,287.05Z" style="fill: rgb(63, 84, 255); transform-origin: 380.87px 285.24px 0px;" id="eldttlbfqxscd" class="animable"></path><path d="M386.91,290.56l-13.3-1.86a.89.89,0,0,1-.76-1h0a.89.89,0,0,1,1-.75l13.31,1.86a.88.88,0,0,1,.75,1h0A.88.88,0,0,1,386.91,290.56Z" style="fill: rgb(63, 84, 255); transform-origin: 380.381px 288.756px 0px;" id="elz2hv333izs" class="animable"></path><polygon points="371.16 293.83 373.95 289.95 386.08 291.65 388.15 296.21 371.16 293.83" style="fill: rgb(63, 84, 255); transform-origin: 379.655px 293.08px 0px;" id="els9wzryxsacr" class="animable"></polygon><path d="M389.4,274.78a67.61,67.61,0,0,1-6.94-.8c-3.82-.53-6.9-1-6.89-1.13s3.12.27,6.94.8S389.42,274.69,389.4,274.78Z" style="fill: rgb(38, 50, 56); transform-origin: 382.485px 273.803px 0px;" id="elidbiqpnhzlc" class="animable"></path><path d="M388.87,276.5c0,.09-3.09-.27-6.86-.8s-6.84-1-6.83-1.12,3.09.26,6.87.79A67.69,67.69,0,0,1,388.87,276.5Z" style="fill: rgb(38, 50, 56); transform-origin: 382.025px 275.536px 0px;" id="elefnhn2th1cq" class="animable"></path><path d="M389,278.31c0,.09-3.15-.27-7-.81s-7-1.05-7-1.14,3.15.27,7,.81S389,278.22,389,278.31Z" style="fill: rgb(38, 50, 56); transform-origin: 382px 277.335px 0px;" id="elacdza3ze2pi" class="animable"></path><path d="M388.08,280c0,.09-3-.25-6.66-.76s-6.62-1-6.6-1.1a66.55,66.55,0,0,1,6.65.77C385.13,279.39,388.09,279.88,388.08,280Z" style="fill: rgb(38, 50, 56); transform-origin: 381.45px 279.077px 0px;" id="el4htvb9pxn04" class="animable"></path><path d="M388.31,281.84c0,.09-3.06-.27-6.81-.79a67.45,67.45,0,0,1-6.77-1.12c0-.09,3.06.27,6.81.79S388.32,281.74,388.31,281.84Z" style="fill: rgb(38, 50, 56); transform-origin: 381.52px 280.885px 0px;" id="elleywar0ts" class="animable"></path><path d="M388.24,283.58c0,.09-3.1-.27-6.9-.8s-6.87-1-6.86-1.13,3.11.27,6.91.8S388.26,283.49,388.24,283.58Z" style="fill: rgb(38, 50, 56); transform-origin: 381.36px 282.61px 0px;" id="elak4y8ip063r" class="animable"></path><path d="M387.61,285.29a63,63,0,0,1-6.51-.75,65,65,0,0,1-6.47-1.07,63.33,63.33,0,0,1,6.51.75C384.72,284.72,387.62,285.2,387.61,285.29Z" style="fill: rgb(38, 50, 56); transform-origin: 381.12px 284.38px 0px;" id="elfqg7gq3jr8m" class="animable"></path><path d="M387.47,287.05a129.28,129.28,0,0,1-13-1.81,129.28,129.28,0,0,1,13,1.81Z" style="fill: rgb(38, 50, 56); transform-origin: 380.97px 286.145px 0px;" id="el4nuypi67cov" class="animable"></path><path d="M386.8,288.72a127.38,127.38,0,0,1-12.91-1.81,63.83,63.83,0,0,1,6.48.74A64.75,64.75,0,0,1,386.8,288.72Z" style="fill: rgb(38, 50, 56); transform-origin: 380.345px 287.815px 0px;" id="ellyp59wey95" class="animable"></path><path d="M386.51,290.51A118.86,118.86,0,0,1,374,288.76a61.36,61.36,0,0,1,6.26.71A56.26,56.26,0,0,1,386.51,290.51Z" style="fill: rgb(38, 50, 56); transform-origin: 380.255px 289.635px 0px;" id="elp77bqljzo8g" class="animable"></path><polygon points="444.21 299.79 432.04 298.42 435.2 275.87 447.37 277.24 444.21 299.79" style="fill: rgb(63, 84, 255); transform-origin: 439.705px 287.83px 0px;" id="elmn09o6z0s" class="animable"></polygon><path d="M447,284.63l-13.31-1.86a.89.89,0,0,1-.75-1h0a.87.87,0,0,1,1-.75l13.31,1.86a.89.89,0,0,1,.76,1h0A.89.89,0,0,1,447,284.63Z" style="fill: rgb(63, 84, 255); transform-origin: 440.475px 282.824px 0px;" id="el5h2i0xmfmx" class="animable"></path><path d="M446.53,288.15l-13.31-1.86a.9.9,0,0,1-.76-1h0a.9.9,0,0,1,1-.76l13.31,1.87a.87.87,0,0,1,.75,1h0A.87.87,0,0,1,446.53,288.15Z" style="fill: rgb(63, 84, 255); transform-origin: 439.992px 286.341px 0px;" id="el9bptlqwumob" class="animable"></path><path d="M446,291.66l-13.3-1.86a.88.88,0,0,1-.76-1h0a.89.89,0,0,1,1-.75l13.31,1.86a.89.89,0,0,1,.75,1h0A.88.88,0,0,1,446,291.66Z" style="fill: rgb(63, 84, 255); transform-origin: 439.469px 289.856px 0px;" id="elsqslp0q55i" class="animable"></path><path d="M445.54,295.18l-13.31-1.86a.89.89,0,0,1-.75-1h0a.88.88,0,0,1,1-.75l13.31,1.86a.88.88,0,0,1,.75,1h0A.88.88,0,0,1,445.54,295.18Z" style="fill: rgb(63, 84, 255); transform-origin: 439.011px 293.375px 0px;" id="elnrla1kbs6sl" class="animable"></path><path d="M445.05,298.7l-13.31-1.87a.87.87,0,0,1-.75-1h0a.88.88,0,0,1,1-.76l13.3,1.86a.89.89,0,0,1,.76,1h0A.9.9,0,0,1,445.05,298.7Z" style="fill: rgb(63, 84, 255); transform-origin: 438.519px 296.884px 0px;" id="ele4syd1f9wxi" class="animable"></path><polygon points="429.3 301.97 432.09 298.09 444.21 299.79 446.28 304.35 429.3 301.97" style="fill: rgb(63, 84, 255); transform-origin: 437.79px 301.22px 0px;" id="elovxsj7h20t" class="animable"></polygon><path d="M447.54,282.92c0,.09-3.12-.27-6.94-.8s-6.91-1.05-6.89-1.14,3.12.27,6.94.81S447.55,282.83,447.54,282.92Z" style="fill: rgb(38, 50, 56); transform-origin: 440.625px 281.95px 0px;" id="el5kaecxpep4e" class="animable"></path><path d="M447,284.63c0,.09-3.09-.26-6.87-.79a67.69,67.69,0,0,1-6.82-1.13c0-.09,3.09.27,6.87.8S447,284.54,447,284.63Z" style="fill: rgb(38, 50, 56); transform-origin: 440.155px 283.67px 0px;" id="elruc26tx5739" class="animable"></path><path d="M447.14,286.45c0,.09-3.15-.28-7-.82s-7-1.05-7-1.14,3.15.28,7,.82S447.15,286.36,447.14,286.45Z" style="fill: rgb(38, 50, 56); transform-origin: 440.14px 285.47px 0px;" id="eljfvgx7qc9db" class="animable"></path><path d="M446.21,288.1c0,.09-3-.25-6.65-.76s-6.62-1-6.61-1.09,3,.25,6.66.76A66.72,66.72,0,0,1,446.21,288.1Z" style="fill: rgb(38, 50, 56); transform-origin: 439.58px 287.175px 0px;" id="elxojzzuaa3jb" class="animable"></path><path d="M446.45,290c0,.09-3.07-.26-6.82-.79s-6.78-1-6.77-1.11,3.07.26,6.82.79S446.46,289.88,446.45,290Z" style="fill: rgb(38, 50, 56); transform-origin: 439.655px 289.047px 0px;" id="els17xeot8tyb" class="animable"></path><path d="M446.38,291.71c0,.09-3.1-.26-6.9-.8s-6.87-1-6.86-1.12,3.1.26,6.9.8S446.39,291.62,446.38,291.71Z" style="fill: rgb(38, 50, 56); transform-origin: 439.5px 290.746px 0px;" id="elovxallph5t" class="animable"></path><path d="M445.74,293.42a128.55,128.55,0,0,1-13-1.81,128.55,128.55,0,0,1,13,1.81Z" style="fill: rgb(38, 50, 56); transform-origin: 439.24px 292.515px 0px;" id="elwu47shdvgm" class="animable"></path><path d="M445.6,295.19a63.65,63.65,0,0,1-6.51-.75,65.11,65.11,0,0,1-6.46-1.07,63.33,63.33,0,0,1,6.51.75A64.46,64.46,0,0,1,445.6,295.19Z" style="fill: rgb(38, 50, 56); transform-origin: 439.115px 294.28px 0px;" id="el7x5rs914skr" class="animable"></path><path d="M444.93,296.85a64.14,64.14,0,0,1-6.47-.74c-3.56-.5-6.44-1-6.43-1.06s2.91.24,6.48.73A63.55,63.55,0,0,1,444.93,296.85Z" style="fill: rgb(38, 50, 56); transform-origin: 438.48px 295.946px 0px;" id="ellm04awzcfkg" class="animable"></path><path d="M444.65,298.64a61.05,61.05,0,0,1-6.26-.71,59.15,59.15,0,0,1-6.22-1,61.05,61.05,0,0,1,6.26.71A59.15,59.15,0,0,1,444.65,298.64Z" style="fill: rgb(38, 50, 56); transform-origin: 438.41px 297.785px 0px;" id="elnsol9s3ksj" class="animable"></path><path d="M412.77,133.15,397.32,245l-14.16-2,15.58-111.35a22.64,22.64,0,0,1,1.63-5.81l8.9-20.71c.35-.81,1.34-.66,1.41.9l2.19,21.7A23.05,23.05,0,0,1,412.77,133.15Z" style="fill: rgb(63, 84, 255); transform-origin: 398.072px 174.824px 0px;" id="elg82kut3wf1i" class="animable"></path><path d="M408.64,160.67c0,.09-3.05-.26-6.78-.78a67.09,67.09,0,0,1-6.74-1.12c0-.09,3.05.26,6.78.79S408.65,160.58,408.64,160.67Z" style="fill: rgb(38, 50, 56); transform-origin: 401.88px 159.72px 0px;" id="elpmj7jzygj3o" class="animable"></path><path d="M398.79,156.3c-.1,0-.11-.43,0-.92s.2-.89.29-.87.1.42,0,.92S398.88,156.31,398.79,156.3Z" style="fill: rgb(38, 50, 56); transform-origin: 398.931px 155.405px 0px;" id="elt4nln2a5pl9" class="animable"></path><path d="M400.19,156.33c-.09,0-.12-.35-.06-.76s.18-.72.27-.71.12.35.06.76S400.28,156.34,400.19,156.33Z" style="fill: rgb(38, 50, 56); transform-origin: 400.295px 155.595px 0px;" id="el5nfria7quxu" class="animable"></path><path d="M404,196.82c0,.09-3.14-.27-7-.81s-6.95-1-6.93-1.13,3.13.27,7,.81S404,196.73,404,196.82Z" style="fill: rgb(38, 50, 56); transform-origin: 397.035px 195.845px 0px;" id="ele1pwq78ory" class="animable"></path><path d="M392.8,199.53c-.09,0-.11-.42,0-.92s.2-.9.3-.89.1.43,0,.93S392.89,199.55,392.8,199.53Z" style="fill: rgb(38, 50, 56); transform-origin: 392.95px 198.625px 0px;" id="eljmjbdfgijc" class="animable"></path><path d="M393.85,199.85c-.09,0-.11-.45,0-1s.2-.94.29-.92.11.44,0,1S393.94,199.86,393.85,199.85Z" style="fill: rgb(38, 50, 56); transform-origin: 393.995px 198.89px 0px;" id="elh1a2ef8b9e8" class="animable"></path><path d="M394.51,231.08a35.68,35.68,0,0,1-4.79-.51,35.29,35.29,0,0,1-4.75-.83,34.61,34.61,0,0,1,4.79.5A32.6,32.6,0,0,1,394.51,231.08Z" style="fill: rgb(38, 50, 56); transform-origin: 389.74px 230.41px 0px;" id="elwhd4ypu6vlf" class="animable"></path><path d="M412.77,131.66c0,.09-3.07-.26-6.82-.79s-6.8-1-6.78-1.11,3.06.26,6.82.78S412.78,131.57,412.77,131.66Z" style="fill: rgb(38, 50, 56); transform-origin: 405.97px 130.707px 0px;" id="elo4ouupzpqb" class="animable"></path><path d="M400.35,130.79s.17,0,.23.17a.35.35,0,0,1-.07.34.38.38,0,0,1-.45.08.38.38,0,0,1-.24-.38.4.4,0,0,1,.21-.29c.19-.08.3,0,.27.06s-.09.06-.14.14-.05.13,0,.17.12,0,.15-.09S400.33,130.84,400.35,130.79Z" style="fill: rgb(38, 50, 56); transform-origin: 400.208px 131.049px 0px;" id="elzhv9jkne7l" class="animable"></path><path d="M405.93,131.58c0-.05.17,0,.23.16a.35.35,0,0,1-.07.34.38.38,0,0,1-.45.08.37.37,0,0,1,0-.67c.19-.08.3,0,.28.06s-.1.06-.15.14,0,.13,0,.17.12,0,.15-.09S405.91,131.62,405.93,131.58Z" style="fill: rgb(38, 50, 56); transform-origin: 405.802px 131.829px 0px;" id="el4yhf4w34435" class="animable"></path><path d="M411.52,132.36c0-.05.16,0,.22.16a.35.35,0,0,1-.07.34.39.39,0,0,1-.45.09.38.38,0,0,1-.23-.39.37.37,0,0,1,.2-.29c.19-.08.3,0,.28.07s-.1.06-.14.13-.05.13,0,.17.12,0,.15-.09S411.5,132.4,411.52,132.36Z" style="fill: rgb(38, 50, 56); transform-origin: 411.373px 132.611px 0px;" id="elwt9woff9axc" class="animable"></path><path d="M396.24,160.18c0-.05.17,0,.23.16a.38.38,0,0,1-.07.34.38.38,0,0,1-.45.08.36.36,0,0,1,0-.67c.19-.08.3,0,.27.06s-.09.06-.14.14-.05.13,0,.17.12,0,.16-.09S396.22,160.22,396.24,160.18Z" style="fill: rgb(38, 50, 56); transform-origin: 396.103px 160.429px 0px;" id="el09jw1hxz5qc4" class="animable"></path><path d="M401.82,161c0-.05.17,0,.23.16a.35.35,0,0,1-.07.34.38.38,0,0,1-.45.08.39.39,0,0,1-.24-.38.4.4,0,0,1,.21-.29c.19-.08.3,0,.27.06s-.09.06-.14.14,0,.13,0,.17.12,0,.15-.09S401.8,161,401.82,161Z" style="fill: rgb(38, 50, 56); transform-origin: 401.678px 161.249px 0px;" id="el7y3w977ct9j" class="animable"></path><path d="M407.4,161.74c0-.05.17,0,.23.16a.35.35,0,0,1-.07.34.39.39,0,0,1-.45.09.38.38,0,0,1-.23-.39.37.37,0,0,1,.2-.29c.19-.08.3,0,.28.07s-.1.06-.15.13,0,.13,0,.17.12,0,.15-.09S407.39,161.78,407.4,161.74Z" style="fill: rgb(38, 50, 56); transform-origin: 407.263px 161.991px 0px;" id="elum91q7d1yj" class="animable"></path><path d="M391.73,192.41s.16,0,.23.16a.38.38,0,0,1-.07.34.39.39,0,0,1-.45.09.39.39,0,0,1-.24-.39.34.34,0,0,1,.21-.28c.19-.09.3,0,.27.06s-.09.06-.14.13-.05.13,0,.17.12,0,.16-.09S391.71,192.45,391.73,192.41Z" style="fill: rgb(38, 50, 56); transform-origin: 391.586px 192.664px 0px;" id="eltxc09p74f9o" class="animable"></path><path d="M397.31,193.19s.17,0,.23.16a.37.37,0,0,1-.07.35.4.4,0,0,1-.45.08.41.41,0,0,1-.24-.39.38.38,0,0,1,.21-.28c.19-.08.3,0,.27.06s-.09.06-.14.13,0,.13,0,.18.12,0,.15-.09S397.29,193.23,397.31,193.19Z" style="fill: rgb(38, 50, 56); transform-origin: 397.168px 193.447px 0px;" id="elpsnxeobhbx8" class="animable"></path><path d="M402.89,194s.17,0,.23.16a.37.37,0,0,1-.07.35.4.4,0,0,1-.45.08.38.38,0,0,1-.23-.39.37.37,0,0,1,.2-.28c.19-.08.3,0,.28.06s-.1.06-.15.13,0,.14,0,.18.12,0,.15-.09S402.87,194,402.89,194Z" style="fill: rgb(38, 50, 56); transform-origin: 402.753px 194.257px 0px;" id="eldxpdc3etg15" class="animable"></path><path d="M386.81,227.55s.17,0,.23.17a.35.35,0,0,1-.07.34.4.4,0,0,1-.45.08.38.38,0,0,1-.23-.39.37.37,0,0,1,.2-.28c.19-.08.3,0,.27.06s-.09.06-.14.13,0,.14,0,.18.12,0,.15-.09S386.79,227.59,386.81,227.55Z" style="fill: rgb(38, 50, 56); transform-origin: 386.673px 227.807px 0px;" id="elwrsu1cojvvr" class="animable"></path><path d="M392.39,228.33s.17,0,.23.17a.35.35,0,0,1-.07.34.39.39,0,0,1-.45.08.38.38,0,0,1-.23-.39.37.37,0,0,1,.2-.28c.19-.08.3,0,.28.06s-.1.06-.15.14,0,.13,0,.17.12,0,.15-.09A1.31,1.31,0,0,0,392.39,228.33Z" style="fill: rgb(38, 50, 56); transform-origin: 392.253px 228.588px 0px;" id="elfrq6fqihrpc" class="animable"></path><path d="M451,138.5,435.13,250.31l14.15,2L464.86,141a23,23,0,0,0,0-6L462,112.55c-.11-.88-1.11-1-1.6.48l-8.06,20.27A22.67,22.67,0,0,0,451,138.5Z" style="fill: rgb(63, 84, 255); transform-origin: 450.093px 182.105px 0px;" id="ely9yalgl2kkp" class="animable"></path><path d="M447.4,166.09c0-.09,3.05.26,6.78.78s6.75,1,6.74,1.11-3.05-.26-6.79-.78S447.38,166.18,447.4,166.09Z" style="fill: rgb(38, 50, 56); transform-origin: 454.16px 167.038px 0px;" id="ele44jzncr1y8" class="animable"></path><path d="M458.07,164.59c-.09,0-.11-.42,0-.92s.2-.88.29-.87.11.43,0,.92S458.16,164.61,458.07,164.59Z" style="fill: rgb(38, 50, 56); transform-origin: 458.215px 163.695px 0px;" id="el0u9wgqww728o" class="animable"></path><path d="M456.71,164.24c-.09,0-.12-.35-.06-.76s.17-.72.26-.71.12.35.07.76S456.8,164.25,456.71,164.24Z" style="fill: rgb(38, 50, 56); transform-origin: 456.811px 163.505px 0px;" id="eld6o93sui66" class="animable"></path><path d="M441.93,202.13c0-.09,3.13.27,7,.81s7,1,6.94,1.13-3.14-.27-7-.8S441.91,202.22,441.93,202.13Z" style="fill: rgb(38, 50, 56); transform-origin: 448.9px 203.105px 0px;" id="ela0h1waf3cep" class="animable"></path><path d="M452,207.81c-.09,0-.11-.43,0-.93s.2-.89.29-.88.11.43,0,.93S452.05,207.82,452,207.81Z" style="fill: rgb(38, 50, 56); transform-origin: 452.145px 206.905px 0px;" id="el8g00jq9w68s" class="animable"></path><path d="M450.86,207.83c-.09,0-.1-.45,0-1s.21-.94.3-.93.1.45,0,1S451,207.84,450.86,207.83Z" style="fill: rgb(38, 50, 56); transform-origin: 451.01px 206.865px 0px;" id="elzy0ardf4gt8" class="animable"></path><path d="M441.65,237.67a35.74,35.74,0,0,1,4.8.51,33.85,33.85,0,0,1,4.75.83,35.89,35.89,0,0,1-4.8-.51A34.21,34.21,0,0,1,441.65,237.67Z" style="fill: rgb(38, 50, 56); transform-origin: 446.425px 238.34px 0px;" id="eltzuzjrz6fjf" class="animable"></path><path d="M451.38,137.06c0-.09,3.07.26,6.83.79s6.79,1,6.78,1.12-3.07-.27-6.83-.79S451.37,137.15,451.38,137.06Z" style="fill: rgb(38, 50, 56); transform-origin: 458.185px 138.019px 0px;" id="el8lhgvcsmdh" class="animable"></path><path d="M463.56,139.64c0,.05,0,.1,0,.19s0,.13.12.13.1-.06.08-.16-.1-.12-.1-.17.12-.11.28,0a.36.36,0,0,1,.12.33.39.39,0,0,1-.34.31.39.39,0,0,1-.4-.21.35.35,0,0,1,0-.35C463.41,139.56,463.57,139.6,463.56,139.64Z" style="fill: rgb(38, 50, 56); transform-origin: 463.669px 139.921px 0px;" id="eltlqiuypgdx" class="animable"></path><path d="M458,138.86s0,.1-.05.19,0,.13.12.13.11-.06.08-.16-.09-.12-.1-.17.13-.11.28,0a.34.34,0,0,1,.12.33.36.36,0,0,1-.33.3.39.39,0,0,1-.41-.2.38.38,0,0,1,0-.35C457.83,138.78,458,138.82,458,138.86Z" style="fill: rgb(38, 50, 56); transform-origin: 458.062px 139.137px 0px;" id="el0ee8j448sw7d" class="animable"></path><path d="M452.4,138.08s0,.1,0,.19,0,.13.12.12.11,0,.08-.15-.09-.12-.1-.17.12-.11.28,0a.36.36,0,0,1,.12.33.37.37,0,0,1-.33.3.38.38,0,0,1-.41-.2.38.38,0,0,1,0-.35C452.25,138,452.4,138,452.4,138.08Z" style="fill: rgb(38, 50, 56); transform-origin: 452.511px 138.357px 0px;" id="elewxcqnzbzsv" class="animable"></path><path d="M459.45,169s0,.1-.05.19,0,.14.13.13.1-.06.08-.16-.1-.12-.1-.17.12-.11.28,0a.36.36,0,0,1,.12.33.41.41,0,0,1-.34.31.39.39,0,0,1-.4-.21.35.35,0,0,1,0-.35C459.3,168.94,459.46,169,459.45,169Z" style="fill: rgb(38, 50, 56); transform-origin: 459.519px 169.281px 0px;" id="elswosb8vvef" class="animable"></path><path d="M453.87,168.24s-.05.1-.05.19,0,.13.12.13.11-.06.08-.16-.09-.12-.1-.17.13-.11.28,0a.34.34,0,0,1,.12.33.36.36,0,0,1-.33.3.39.39,0,0,1-.41-.2.38.38,0,0,1,0-.35C453.72,168.16,453.87,168.2,453.87,168.24Z" style="fill: rgb(38, 50, 56); transform-origin: 453.932px 168.517px 0px;" id="elvs557zwij9a" class="animable"></path><path d="M448.29,167.46s-.05.1-.05.19,0,.13.12.12.11-.05.08-.15-.09-.12-.1-.17.12-.11.28,0a.36.36,0,0,1,.12.33.37.37,0,0,1-.33.3.38.38,0,0,1-.41-.2.41.41,0,0,1,0-.35C448.14,167.38,448.29,167.41,448.29,167.46Z" style="fill: rgb(38, 50, 56); transform-origin: 448.353px 167.737px 0px;" id="eljvfafk8bpej" class="animable"></path><path d="M454.94,201.25c0,.05,0,.1-.05.19s0,.14.13.13.1,0,.08-.16-.1-.12-.1-.16.12-.12.28,0a.42.42,0,0,1,.12.33.41.41,0,0,1-.34.31.37.37,0,0,1-.4-.2.35.35,0,0,1,0-.35C454.79,201.18,455,201.21,454.94,201.25Z" style="fill: rgb(38, 50, 56); transform-origin: 455.007px 201.542px 0px;" id="eln1ofufqee8" class="animable"></path><path d="M449.36,200.47c0,.05-.05.1-.05.19s0,.14.12.13.11-.06.08-.16-.09-.12-.1-.16.13-.12.28,0a.35.35,0,0,1,.12.33.4.4,0,0,1-.74.11.37.37,0,0,1,0-.35C449.21,200.4,449.36,200.43,449.36,200.47Z" style="fill: rgb(38, 50, 56); transform-origin: 449.421px 200.761px 0px;" id="elglcf2tpv6v5" class="animable"></path><path d="M443.78,199.69c0,.05,0,.1,0,.19s0,.14.12.13.11-.06.08-.16-.09-.12-.1-.16.12-.12.28,0a.36.36,0,0,1,.12.33.39.39,0,0,1-.33.31.41.41,0,0,1-.41-.2.41.41,0,0,1,0-.35C443.63,199.62,443.78,199.65,443.78,199.69Z" style="fill: rgb(38, 50, 56); transform-origin: 443.893px 199.98px 0px;" id="elh7msduthiuc" class="animable"></path><path d="M450,236.4s0,.1,0,.19,0,.13.12.12.1-.05.08-.15-.1-.12-.1-.17.12-.11.28,0a.36.36,0,0,1,.12.33.4.4,0,0,1-.74.1.35.35,0,0,1,0-.35C449.88,236.32,450,236.35,450,236.4Z" style="fill: rgb(38, 50, 56); transform-origin: 450.109px 236.678px 0px;" id="elfw24sschpsq" class="animable"></path><path d="M444.44,235.62s0,.1-.05.18,0,.14.13.13.1-.05.08-.15-.1-.12-.1-.17.12-.12.28,0a.39.39,0,0,1,.12.33.39.39,0,0,1-.34.31.37.37,0,0,1-.4-.2.35.35,0,0,1,0-.35C444.29,235.54,444.45,235.57,444.44,235.62Z" style="fill: rgb(38, 50, 56); transform-origin: 444.508px 235.9px 0px;" id="elpqzgwws1zs8" class="animable"></path><path d="M441.36,66.05s-19.66,17.38-22.68,35.69c-2.94,17.8-9.43,67.26-9.43,67.26l-8.42,60.18L435.52,234l15.31-109.37,1.88-13.48a90.3,90.3,0,0,0-.89-18.9C450.36,81.66,441.36,66.05,441.36,66.05Z" style="fill: rgb(63, 84, 255); transform-origin: 426.846px 150.025px 0px;" id="eldcnvm9fiuzd" class="animable"></path><g id="el8qxgcjjm0a2"><g style="opacity: 0.3; transform-origin: 426.846px 150.025px 0px;" class="animable"><path d="M441.36,66.05s-19.66,17.38-22.68,35.69c-2.94,17.8-9.43,67.26-9.43,67.26l-8.42,60.18L435.52,234l15.31-109.37,1.88-13.48a90.3,90.3,0,0,0-.89-18.9C450.36,81.66,441.36,66.05,441.36,66.05Z" id="elznda66p18gg" style="transform-origin: 426.846px 150.025px 0px;" class="animable"></path></g></g><path d="M451.18,122.19c0,.09-7.83-.93-17.46-2.27s-17.42-2.52-17.41-2.61,7.83.93,17.46,2.28S451.19,122.1,451.18,122.19Z" style="fill: rgb(38, 50, 56); transform-origin: 433.745px 119.75px 0px;" id="elssu5pjcqm2f" class="animable"></path><path d="M413.68,151.67a.12.12,0,0,1,0,.07v0h0s0,0,0,0h0v0h0v.1h-.06c.11-1.31,1-8.43,2.24-17,.69-4.75,1.31-9,1.76-12.21.24-1.52.43-2.77.57-3.69l.17-1c.05-.23.07-.35.09-.35a2,2,0,0,1,0,.36c0,.26-.07.6-.11,1-.12.92-.27,2.17-.47,3.7-.43,3.17-1,7.47-1.66,12.22-1.2,8.58-2.25,15.69-2.51,17h-.06l0-.07v0h.05v0h0c-.07,0,0,0,0,0h0v0S413.67,151.67,413.68,151.67Z" style="fill: rgb(38, 50, 56); transform-origin: 416.039px 134.73px 0px;" id="el8ouzx6hq2ti" class="animable"></path><path d="M416.14,152.22c-.09,0,.91-7.7,2.23-17.15S420.84,118,420.93,118s-.9,7.69-2.23,17.15S416.23,152.23,416.14,152.22Z" style="fill: rgb(38, 50, 56); transform-origin: 418.535px 135.11px 0px;" id="eldaflzhy09db" class="animable"></path><path d="M418.7,152.58c-.09,0,.89-7.7,2.2-17.16s2.43-17.13,2.52-17.11-.89,7.69-2.19,17.15S418.79,152.59,418.7,152.58Z" style="fill: rgb(38, 50, 56); transform-origin: 421.06px 135.445px 0px;" id="el5tn6qism4yc" class="animable"></path><path d="M421.12,152.91c-.09,0,.91-7.69,2.23-17.15s2.47-17.12,2.56-17.1-.9,7.69-2.23,17.15S421.21,152.93,421.12,152.91Z" style="fill: rgb(38, 50, 56); transform-origin: 423.515px 135.785px 0px;" id="elkgpq55da9q" class="animable"></path><path d="M423.5,154.06c-.09,0,.93-7.87,2.29-17.55S428.31,119,428.4,119s-.93,7.87-2.28,17.56S423.59,154.07,423.5,154.06Z" style="fill: rgb(38, 50, 56); transform-origin: 425.95px 136.53px 0px;" id="elxor6j7dt49" class="animable"></path><path d="M426,154.41c-.09,0,.93-7.87,2.29-17.55s2.52-17.52,2.61-17.51-.93,7.87-2.28,17.55S426.08,154.42,426,154.41Z" style="fill: rgb(38, 50, 56); transform-origin: 428.45px 136.88px 0px;" id="el5w3iu9rslir" class="animable"></path><path d="M428.48,154.76c-.09,0,.93-7.87,2.29-17.55s2.52-17.52,2.61-17.51-.93,7.87-2.28,17.55S428.57,154.77,428.48,154.76Z" style="fill: rgb(38, 50, 56); transform-origin: 430.93px 137.23px 0px;" id="elb6k4gkhaco5" class="animable"></path><path d="M431,155.1c-.09,0,.93-7.87,2.29-17.55s2.52-17.51,2.61-17.5-.93,7.87-2.28,17.55S431.06,155.12,431,155.1Z" style="fill: rgb(38, 50, 56); transform-origin: 433.45px 137.575px 0px;" id="el78akvg1hu67" class="animable"></path><path d="M433.46,155.45c-.09,0,.93-7.87,2.29-17.55s2.52-17.52,2.61-17.5-.93,7.87-2.29,17.55S433.55,155.47,433.46,155.45Z" style="fill: rgb(38, 50, 56); transform-origin: 435.91px 137.925px 0px;" id="elgxtf5z0if6" class="animable"></path><path d="M436.18,155c-.09,0,.88-7.69,2.17-17.16s2.41-17.13,2.5-17.11-.88,7.69-2.17,17.16S436.27,155,436.18,155Z" style="fill: rgb(38, 50, 56); transform-origin: 438.515px 137.865px 0px;" id="eld4fw1dt0glv" class="animable"></path><path d="M438.55,155.35a1.33,1.33,0,0,1,0-.35c0-.27.07-.6.11-1,.12-.92.27-2.16.46-3.68.43-3.14,1-7.41,1.65-12.12s1.29-9,1.74-12.11c.24-1.51.43-2.75.57-3.66.07-.4.13-.73.17-1a1.5,1.5,0,0,1,.08-.35,1.43,1.43,0,0,1,0,.36c0,.26-.07.59-.11,1-.12.91-.27,2.16-.46,3.68-.43,3.14-1,7.4-1.65,12.12s-1.29,9-1.74,12.1c-.24,1.51-.43,2.75-.57,3.67-.07.4-.12.73-.17,1A1.31,1.31,0,0,1,438.55,155.35Z" style="fill: rgb(38, 50, 56); transform-origin: 440.94px 138.215px 0px;" id="ela7xrpc5tsk" class="animable"></path><path d="M441,155.7c-.09,0,.91-7.69,2.23-17.15s2.47-17.12,2.56-17.11-.91,7.69-2.23,17.16S441.13,155.71,441,155.7Z" style="fill: rgb(38, 50, 56); transform-origin: 443.395px 138.57px 0px;" id="el2wfu4y8rw4k" class="animable"></path><path d="M443.53,156.05c-.09,0,.91-7.69,2.23-17.15s2.47-17.12,2.56-17.11-.91,7.69-2.23,17.15S443.62,156.06,443.53,156.05Z" style="fill: rgb(38, 50, 56); transform-origin: 445.925px 138.92px 0px;" id="el8t6m2h3aiwb" class="animable"></path><path d="M446,156.4c-.09,0,.91-7.69,2.23-17.15s2.47-17.12,2.56-17.11-.91,7.69-2.23,17.15S446.11,156.41,446,156.4Z" style="fill: rgb(38, 50, 56); transform-origin: 448.395px 139.27px 0px;" id="elsjrezq5soyn" class="animable"></path><path d="M446.38,156.45c0,.09-7.8-.92-17.39-2.27s-17.35-2.5-17.34-2.59,7.8.92,17.39,2.26S446.39,156.36,446.38,156.45Z" style="fill: rgb(38, 50, 56); transform-origin: 429.015px 154.02px 0px;" id="elw2p473zd4ts" class="animable"></path><path d="M459,264.13c-.43-1.41-23.25-32.86-23.25-33.59l2.14-59.86c-.12-2-4.28-26.76-4.28-26.76s-.85-2.35-2.8-2.5a3.1,3.1,0,0,0-3,1.43c-.45.46-10.8,20.84-11.42,22.46s-13.41,59.32-13.41,59.32-30.12,23.47-31.89,24.81c-1.2.9-4,16.75-4,16.75l32,6.43,25.5,3.44,33.56,2S459.46,265.53,459,264.13Z" style="fill: rgb(245, 245, 245); transform-origin: 413.094px 209.729px 0px;" id="eliq38aawirh7" class="animable"></path><path d="M458.68,278.63l-34-2.07-25.53-3.44-32.53-6.54.09-.48c.66-3.76,2.93-16.12,4.19-17.06,1.68-1.27,29.49-22.94,31.74-24.7.92-4.13,12.77-57.6,13.39-59.21.46-1.19,10.92-22,11.54-22.63l.2-.23a3.32,3.32,0,0,1,3.15-1.34c2.25.16,3.2,2.71,3.24,2.82.2,1.1,4.19,24.91,4.31,26.9l-2.14,59.81c.51,1,6,8.78,10.9,15.66,7.52,10.62,12.1,17.12,12.33,17.86h0c.44,1.46-.67,12.87-.8,14.17ZM367.74,265.8l31.53,6.33,25.47,3.44,33,2c.47-4.84,1.07-12.34.79-13.29s-6.9-10.12-12.19-17.58c-10.06-14.2-11.08-15.74-11.08-16.16l2.14-59.87c-.11-1.89-4.22-26.34-4.27-26.67h0s-.78-2-2.35-2.08a2.39,2.39,0,0,0-2.32,1l-.25.28c-.62.83-10.68,20.65-11.32,22.29-.48,1.26-9,39.3-13.38,59.25l0,.17-.14.11c-.3.24-30.15,23.49-31.9,24.82C370.79,250.51,369.06,258.39,367.74,265.8Z" style="fill: rgb(38, 50, 56); transform-origin: 413.141px 209.764px 0px;" id="eluewvbufjop" class="animable"></path><path d="M438,170c-.52-4.2-4.22-26.2-4.22-26.2s-.85-2.35-2.8-2.5a3.1,3.1,0,0,0-3,1.43c-.46.46-10.81,20.84-11.43,22.46-.06.15-.21.76-.45,1.75Z" style="fill: rgb(245, 245, 245); transform-origin: 427.05px 155.639px 0px;" id="elkrm1qkt5i0a" class="animable"></path><path d="M399.63,276.34l2-16.35,2.78-5.85,6.83-49.61,4.9-37.64L438,170,425.4,257.13l1.4,6.08-3.4,24.31L412,285.92l3.32-25.06a1.17,1.17,0,0,0-1-1.3h0a1.15,1.15,0,0,0-1.31,1l-3.45,25-10.88-1.53Z" style="fill: rgb(245, 245, 245); transform-origin: 418.34px 227.205px 0px;" id="el1wqeqwup6kp" class="animable"></path><path d="M396.66,254.79a4.4,4.4,0,1,1-3.74-5A4.4,4.4,0,0,1,396.66,254.79Z" style="fill: rgb(63, 84, 255); transform-origin: 392.307px 254.147px 0px;" id="elqww2syk76w" class="animable"></path><path d="M425.13,179.67c.09,0-2.33,17.87-5.41,39.87s-5.65,39.83-5.74,39.82,2.33-17.86,5.41-39.87S425,179.66,425.13,179.67Z" style="fill: rgb(38, 50, 56); transform-origin: 419.555px 219.515px 0px;" id="elt2gic4sv9jn" class="animable"></path><g id="elb5ycbgr0s5"><rect x="423.98" y="173.03" width="1.56" height="2.74" style="fill: rgb(63, 84, 255); transform-origin: 424.76px 174.4px 0px; transform: rotate(7.97deg);" class="animable"></rect></g><g id="elzyoh67vjl1"><rect x="427.43" y="173.52" width="1.56" height="2.74" style="fill: rgb(63, 84, 255); transform-origin: 428.21px 174.89px 0px; transform: rotate(7.96deg);" class="animable"></rect></g><path d="M421.12,165.4l1.71,2.38,8.54,1.2,2.28-1.73a9.25,9.25,0,0,0-6-3A10.88,10.88,0,0,0,421.12,165.4Z" style="fill: rgb(38, 50, 56); transform-origin: 427.385px 166.565px 0px;" id="eltxx0v8kgx5a" class="animable"></path><path d="M436.49,180.44c0,.09-4.88-.51-10.88-1.35s-10.84-1.59-10.83-1.68,4.88.51,10.88,1.35S436.51,180.35,436.49,180.44Z" style="fill: rgb(38, 50, 56); transform-origin: 425.635px 178.925px 0px;" id="ela4mv244k98" class="animable"></path><path d="M436.2,158c0,.09-3.31-.29-7.36-.86s-7.32-1.1-7.31-1.19,3.31.29,7.36.86S436.21,157.88,436.2,158Z" style="fill: rgb(38, 50, 56); transform-origin: 428.865px 156.975px 0px;" id="elq10ya3a5moi" class="animable"></path><path d="M416.38,179.51c0,.05-.1.08-.14.18s0,.2.09.22.18,0,.18-.17-.08-.17-.06-.22.17-.06.28.14a.41.41,0,0,1,0,.39.44.44,0,0,1-.46.19.42.42,0,0,1-.35-.35.39.39,0,0,1,.15-.36C416.24,179.39,416.4,179.47,416.38,179.51Z" style="fill: rgb(38, 50, 56); transform-origin: 416.348px 179.85px 0px;" id="elmsj55u2j82q" class="animable"></path><path d="M418.56,179.81c0,.05-.09.08-.14.18s0,.2.1.23.17-.05.17-.17-.07-.18-.06-.22.17-.06.28.13a.41.41,0,0,1,0,.39.43.43,0,1,1-.66-.52C418.43,179.69,418.58,179.78,418.56,179.81Z" style="fill: rgb(38, 50, 56); transform-origin: 418.526px 180.173px 0px;" id="elw4p3oz5fxjf" class="animable"></path><path d="M420.93,180.15s-.09.07-.14.17,0,.2.09.23.18-.05.18-.17-.07-.17-.06-.22.17-.06.28.14a.39.39,0,0,1,0,.38.43.43,0,0,1-.46.2.44.44,0,0,1-.35-.36.41.41,0,0,1,.15-.36C420.8,180,421,180.11,420.93,180.15Z" style="fill: rgb(38, 50, 56); transform-origin: 420.899px 180.483px 0px;" id="el3sknbo2lo4g" class="animable"></path><path d="M423.3,180.48s-.1.07-.14.17,0,.2.09.23.18,0,.18-.17-.08-.17-.06-.22.17-.06.28.14a.39.39,0,0,1,0,.38.41.41,0,0,1-.45.2.42.42,0,0,1-.35-.36.4.4,0,0,1,.14-.35C423.16,180.36,423.31,180.44,423.3,180.48Z" style="fill: rgb(38, 50, 56); transform-origin: 423.273px 180.821px 0px;" id="eluoyx4y7ndoj" class="animable"></path><path d="M428,238.59c0,.09-4.76-.5-10.61-1.32s-10.58-1.56-10.57-1.65,4.77.5,10.62,1.32S428,238.5,428,238.59Z" style="fill: rgb(38, 50, 56); transform-origin: 417.41px 237.105px 0px;" id="el9d7w4t01fl9" class="animable"></path><path d="M433.47,201c0,.09-4.81-.51-10.71-1.34s-10.68-1.56-10.67-1.66,4.81.51,10.71,1.34S433.48,200.94,433.47,201Z" style="fill: rgb(38, 50, 56); transform-origin: 422.78px 199.499px 0px;" id="el0liy6eqjm98d" class="animable"></path><path d="M430.64,221.28c0,.09-4.76-.5-10.59-1.31s-10.55-1.55-10.54-1.64,4.76.49,10.59,1.31S430.65,221.19,430.64,221.28Z" style="fill: rgb(38, 50, 56); transform-origin: 420.075px 219.805px 0px;" id="elo3tee685k7" class="animable"></path><path d="M412.55,261.67a96.07,96.07,0,0,1-11-1.54,45,45,0,0,1,5.53.6A47.32,47.32,0,0,1,412.55,261.67Z" style="fill: rgb(38, 50, 56); transform-origin: 407.05px 260.9px 0px;" id="el7jzcv4p7ckk" class="animable"></path><path d="M412,266.17a44.14,44.14,0,0,1-5.34-.58,45.93,45.93,0,0,1-5.31-.91,44,44,0,0,1,5.35.58A43.09,43.09,0,0,1,412,266.17Z" style="fill: rgb(38, 50, 56); transform-origin: 406.675px 265.425px 0px;" id="elp0e7k3wj1s" class="animable"></path><path d="M411.68,270a42.26,42.26,0,0,1-5.5-.6,45.9,45.9,0,0,1-5.45-.93,46.69,46.69,0,0,1,5.5.6A48.47,48.47,0,0,1,411.68,270Z" style="fill: rgb(38, 50, 56); transform-origin: 406.205px 269.235px 0px;" id="elz0tivi0rvj" class="animable"></path><path d="M411,274.14a44.75,44.75,0,0,1-5.38-.58,45.39,45.39,0,0,1-5.34-.92,90.92,90.92,0,0,1,10.72,1.5Z" style="fill: rgb(38, 50, 56); transform-origin: 405.64px 273.39px 0px;" id="elwjq16oy2x4l" class="animable"></path><path d="M410.43,277.91a44.6,44.6,0,0,1-5.39-.58,45.39,45.39,0,0,1-5.34-.92,43.74,43.74,0,0,1,5.39.59A44.27,44.27,0,0,1,410.43,277.91Z" style="fill: rgb(38, 50, 56); transform-origin: 405.065px 277.16px 0px;" id="elg07mfutb7jp" class="animable"></path><path d="M409.9,281.68a44.8,44.8,0,0,1-5.39-.58,45.39,45.39,0,0,1-5.34-.92,43.55,43.55,0,0,1,5.39.59A44.27,44.27,0,0,1,409.9,281.68Z" style="fill: rgb(38, 50, 56); transform-origin: 404.535px 280.93px 0px;" id="elbcvh2vp2bu8" class="animable"></path><path d="M426.27,263.59a46.15,46.15,0,0,1-5.53-.61,48.74,48.74,0,0,1-5.49-.93,45,45,0,0,1,5.53.6A47.83,47.83,0,0,1,426.27,263.59Z" style="fill: rgb(38, 50, 56); transform-origin: 420.76px 262.82px 0px;" id="elr1a9x93t9b" class="animable"></path><path d="M425.71,268.09a44.19,44.19,0,0,1-5.35-.58,46,46,0,0,1-5.3-.91,41.89,41.89,0,0,1,5.35.58A43.54,43.54,0,0,1,425.71,268.09Z" style="fill: rgb(38, 50, 56); transform-origin: 420.385px 267.345px 0px;" id="elclpqskl8x3i" class="animable"></path><path d="M425.4,272a44.27,44.27,0,0,1-5.5-.6,45.9,45.9,0,0,1-5.45-.93,47.13,47.13,0,0,1,5.5.6A48.47,48.47,0,0,1,425.4,272Z" style="fill: rgb(38, 50, 56); transform-origin: 419.925px 271.235px 0px;" id="elo9l406nm8vd" class="animable"></path><path d="M424.67,276.06a90.92,90.92,0,0,1-10.72-1.5,43.69,43.69,0,0,1,5.38.59A44.27,44.27,0,0,1,424.67,276.06Z" style="fill: rgb(38, 50, 56); transform-origin: 419.31px 275.31px 0px;" id="el0lg2dh5r79uq" class="animable"></path><path d="M424.14,279.83a44.75,44.75,0,0,1-5.38-.58,45.39,45.39,0,0,1-5.34-.92,90.92,90.92,0,0,1,10.72,1.5Z" style="fill: rgb(38, 50, 56); transform-origin: 418.78px 279.08px 0px;" id="el0ldy8lf8lpu" class="animable"></path><path d="M423.62,283.6a44.6,44.6,0,0,1-5.39-.58,45.39,45.39,0,0,1-5.34-.92,43.74,43.74,0,0,1,5.39.59A44.27,44.27,0,0,1,423.62,283.6Z" style="fill: rgb(38, 50, 56); transform-origin: 418.255px 282.85px 0px;" id="elvh3m9k9iwr" class="animable"></path><path d="M428.39,165.59a4.29,4.29,0,0,1-1.47.81,4.11,4.11,0,0,1-1.59.51,8.47,8.47,0,0,1,3.06-1.32Z" style="fill: rgb(255, 255, 255); transform-origin: 426.86px 166.25px 0px;" id="elqgpgm1fjldd" class="animable"></path><path d="M429.4,165.83c.06.1-.53.44-1.28.77a3.36,3.36,0,0,1-1.44.44c0-.08.55-.41,1.3-.74A4.52,4.52,0,0,1,429.4,165.83Z" style="fill: rgb(255, 255, 255); transform-origin: 428.042px 166.435px 0px;" id="elzxxe944onp" class="animable"></path><path d="M416.4,165.56c.09,0-2.53,19.8-5.86,44.19s-6.1,44.16-6.19,44.14,2.54-19.79,5.86-44.19S416.31,165.55,416.4,165.56Z" style="fill: rgb(38, 50, 56); transform-origin: 410.375px 209.725px 0px;" id="el7m7z4ugic0f" class="animable"></path><path d="M425.48,256.62c-.09,0,2.52-18.6,5.84-41.51s6.08-41.48,6.17-41.46-2.52,18.59-5.84,41.51S425.57,256.63,425.48,256.62Z" style="fill: rgb(38, 50, 56); transform-origin: 431.485px 215.135px 0px;" id="eln0m3vxyjop" class="animable"></path><g id="elxnrohfv7mfb"><rect x="429.87" y="260.35" width="12.75" height="3.44" style="fill: rgb(63, 84, 255); transform-origin: 436.245px 262.07px 0px; transform: rotate(8.04906deg);" class="animable"></rect></g><path d="M441.36,66.05c.09,0-1.49,12-3.53,26.67s-3.76,26.65-3.85,26.64,1.49-12,3.52-26.68S441.27,66,441.36,66.05Z" style="fill: rgb(38, 50, 56); transform-origin: 437.67px 92.7049px 0px;" id="elyfw55vvao2s" class="animable"></path><path d="M435.57,116.32s.18-.11.38.08a.5.5,0,0,1,.13.44.54.54,0,0,1-1,.17.52.52,0,0,1,0-.47c.13-.25.33-.24.33-.2s-.09.12-.1.28.06.33.27.29a.23.23,0,0,0,.17-.37C435.69,116.4,435.57,116.36,435.57,116.32Z" style="fill: rgb(38, 50, 56); transform-origin: 435.556px 116.785px 0px;" id="el0fhnw93lc26a" class="animable"></path><path d="M436.82,107.38s.18-.11.38.08a.51.51,0,0,1-.3.85.5.5,0,0,1-.56-.71c.13-.24.33-.24.33-.19s-.08.11-.1.27a.24.24,0,1,0,.44-.07C436.94,107.46,436.82,107.43,436.82,107.38Z" style="fill: rgb(38, 50, 56); transform-origin: 436.811px 107.836px 0px;" id="el7cm3usqxvhw" class="animable"></path><path d="M438.07,98.44s.18-.11.38.09a.5.5,0,0,1,.13.44.52.52,0,0,1-.43.4.5.5,0,0,1-.56-.7c.13-.25.33-.24.33-.2s-.08.12-.1.27.06.34.27.3a.23.23,0,0,0,.17-.37C438.19,98.53,438.07,98.49,438.07,98.44Z" style="fill: rgb(38, 50, 56); transform-origin: 438.066px 98.8957px 0px;" id="elgnpk5y59gcr" class="animable"></path><path d="M439.32,89.51s.18-.11.38.08a.51.51,0,0,1,.13.44.5.5,0,0,1-.43.4.51.51,0,0,1-.54-.23.52.52,0,0,1,0-.47c.13-.24.33-.24.33-.2s-.08.12-.1.28a.23.23,0,0,0,.27.3.24.24,0,0,0,.17-.38C439.44,89.59,439.32,89.56,439.32,89.51Z" style="fill: rgb(38, 50, 56); transform-origin: 439.321px 89.9598px 0px;" id="el2bdpc2i2v9h" class="animable"></path><path d="M440.57,80.57s.18-.11.38.08a.53.53,0,0,1,.13.45.53.53,0,0,1-1,.16.5.5,0,0,1,0-.46c.13-.25.33-.25.33-.2s-.08.11-.1.27.06.34.27.3a.23.23,0,0,0,.17-.37C440.69,80.65,440.57,80.62,440.57,80.57Z" style="fill: rgb(38, 50, 56); transform-origin: 440.556px 81.0469px 0px;" id="elyr4l6w6w2s" class="animable"></path><path d="M441.82,71.64s.18-.11.38.08a.52.52,0,1,1-.86.14c.13-.25.33-.24.33-.2s-.08.12-.1.27.06.34.27.3a.23.23,0,0,0,.17-.37C441.94,71.72,441.82,71.68,441.82,71.64Z" style="fill: rgb(38, 50, 56); transform-origin: 441.816px 72.0993px 0px;" id="el6qhtnra5jox" class="animable"></path><path d="M430.84,80.1a7,7,0,0,1-.64.87c-.44.55-1,1.36-1.76,2.38s-1.53,2.27-2.36,3.69a51.53,51.53,0,0,0-2.43,4.77,52.51,52.51,0,0,0-1.91,5c-.49,1.57-.88,3-1.15,4.22s-.47,2.21-.58,2.9a7.52,7.52,0,0,1-.22,1.06,7.11,7.11,0,0,1,.09-1.08c.07-.7.24-1.7.48-2.93s.61-2.68,1.09-4.27a51,51,0,0,1,1.89-5,49.51,49.51,0,0,1,2.48-4.79c.85-1.42,1.68-2.66,2.43-3.67s1.38-1.8,1.85-2.32A6.26,6.26,0,0,1,430.84,80.1Z" style="fill: rgb(255, 255, 255); transform-origin: 425.315px 92.545px 0px;" id="elnu24q9sn24" class="animable"></path><path d="M434.5,75.31c.08,0-.19.54-.59,1.08s-.79.94-.86.88.19-.54.59-1.08S434.43,75.25,434.5,75.31Z" style="fill: rgb(255, 255, 255); transform-origin: 433.776px 76.29px 0px;" id="elixaufn5rtts" class="animable"></path><path d="M414.69,150.64c-.09,0,.82-7,2-15.69s2.27-15.66,2.36-15.65-.82,7-2,15.69S414.78,150.65,414.69,150.64Z" style="fill: rgb(255, 255, 255); transform-origin: 416.87px 134.97px 0px;" id="elgs68o0fc26j" class="animable"></path><path d="M418.4,141.1a33.21,33.21,0,0,1,.49-4.77,35,35,0,0,1,.83-4.71,34.27,34.27,0,0,1-.5,4.76A34.51,34.51,0,0,1,418.4,141.1Z" style="fill: rgb(255, 255, 255); transform-origin: 419.06px 136.36px 0px;" id="el7we3vucl8if" class="animable"></path><path d="M421.56,138.19a9.39,9.39,0,0,1,.49-3.49,9.39,9.39,0,0,1-.49,3.49Z" style="fill: rgb(255, 255, 255); transform-origin: 421.805px 136.445px 0px;" id="el6mstw0wygva" class="animable"></path><path d="M407.44,192.62c-.09,0,1-8.3,2.42-18.5s2.66-18.46,2.75-18.45-1,8.29-2.42,18.5S407.53,192.63,407.44,192.62Z" style="fill: rgb(255, 255, 255); transform-origin: 410.025px 174.145px 0px;" id="eluet1on64is" class="animable"></path><path d="M360.78,272.12l2.67,1-2.31.66a2.41,2.41,0,0,0-1.64,1.57l-.83,2.55-1-2.56a2.43,2.43,0,0,0-1.42-1.37l-2.33-.85,2.53-1a2.4,2.4,0,0,0,1.33-1.36l.92-2.38.65,2.21A2.41,2.41,0,0,0,360.78,272.12Z" style="fill: rgb(38, 50, 56); transform-origin: 358.685px 273.14px 0px;" id="elj7brj63jjmr" class="animable"></path><path d="M308.37,270.59l1.53.58-1.33.37a1.39,1.39,0,0,0-.93.91l-.48,1.47-.6-1.48a1.36,1.36,0,0,0-.81-.78l-1.34-.49,1.45-.6a1.37,1.37,0,0,0,.77-.78l.53-1.37.37,1.27A1.4,1.4,0,0,0,308.37,270.59Z" style="fill: rgb(38, 50, 56); transform-origin: 307.155px 271.17px 0px;" id="elveoldpb0q0d" class="animable"></path><path d="M319,206a15.41,15.41,0,0,1-9.53-27.52,15.41,15.41,0,1,0,15,26.51A15.42,15.42,0,0,1,319,206Z" style="fill: rgb(69, 90, 100); transform-origin: 311.992px 193.391px 0px;" id="elbymbf55evtr" class="animable"></path><g id="el16kr9knbeh1"><circle cx="535.11" cy="278.33" r="25.65" style="fill: rgb(245, 245, 245); transform-origin: 535.11px 278.33px 0px; transform: rotate(-74.94deg);" class="animable"></circle></g><path d="M556.7,274.75a6.54,6.54,0,1,1-5.57-7.39A6.54,6.54,0,0,1,556.7,274.75Z" style="fill: rgb(255, 255, 255); transform-origin: 550.224px 273.837px 0px;" id="elk17mdu84g4j" class="animable"></path><path d="M547.1,262.93a2.64,2.64,0,1,1-2.25-3A2.64,2.64,0,0,1,547.1,262.93Z" style="fill: rgb(255, 255, 255); transform-origin: 544.488px 262.545px 0px;" id="elo2ec6hdyc1l" class="animable"></path><path d="M549.1,296a2,2,0,1,1-1.67-2.22A2,2,0,0,1,549.1,296Z" style="fill: rgb(235, 235, 235); transform-origin: 547.115px 295.755px 0px;" id="elyqx07j90f8q" class="animable"></path><polygon points="542.39 188.44 543.4 191.13 545.7 192.84 543.02 193.85 541.31 196.15 540.29 193.47 538 191.76 540.68 190.74 542.39 188.44" style="fill: rgb(224, 224, 224); transform-origin: 541.85px 192.295px 0px;" id="ell5oyomt71ob" class="animable"></polygon><polygon points="348.41 219.7 349.42 222.38 351.72 224.09 349.04 225.1 347.33 227.41 346.32 224.72 344.02 223.01 346.7 222 348.41 219.7" style="fill: rgb(224, 224, 224); transform-origin: 347.87px 223.555px 0px;" id="el8q3g4w1rh87" class="animable"></polygon><polygon points="328.56 263.53 329 264.7 330 265.44 328.84 265.88 328.1 266.88 327.65 265.71 326.65 264.97 327.82 264.53 328.56 263.53" style="fill: rgb(224, 224, 224); transform-origin: 328.325px 265.205px 0px;" id="el4lw1m3ovrdi" class="animable"></polygon><path d="M334.4,166.14c.54-1.92-2-3.91-4-4.37a11.81,11.81,0,0,1-2.92-.66c-1.92-1-2.37-3.72-4.23-4.84-1.39-.83-3.17-.51-4.7,0s-3.08,1.23-4.69,1.11c-1.41-.11-2.85-.83-4.16-.32-1,.38-1.61,1.36-2.53,1.86a5.39,5.39,0,0,1-3,.38,8.06,8.06,0,0,0-3.06.07,2.38,2.38,0,0,0-1.84,2.19Z" style="fill: rgb(255, 255, 255); transform-origin: 316.872px 160.95px 0px;" id="el2qxy1b1rsvf" class="animable"></path><path d="M347.73,249.76c1-3.55-3.69-7.24-7.48-8.09-1.81-.4-3.75-.39-5.4-1.24-3.57-1.83-4.39-6.9-7.84-9-2.58-1.54-5.88-1-8.72,0s-5.71,2.28-8.7,2c-2.61-.19-5.28-1.54-7.71-.6-1.82.71-3,2.52-4.68,3.45a9.92,9.92,0,0,1-5.59.71,15.2,15.2,0,0,0-5.67.13c-1.82.54-3.5,2.16-3.4,4.06Z" style="fill: rgb(255, 255, 255); transform-origin: 315.201px 240.113px 0px;" id="ell7cs2dv9ptp" class="animable"></path><path d="M564.64,233.87c.83-2.93-3-6-6.19-6.69-1.5-.33-3.1-.32-4.47-1-3-1.52-3.63-5.71-6.49-7.41-2.13-1.28-4.86-.79-7.21,0s-4.72,1.89-7.2,1.7c-2.15-.16-4.36-1.28-6.38-.5-1.5.58-2.45,2.09-3.87,2.85a8.14,8.14,0,0,1-4.62.59,12.73,12.73,0,0,0-4.69.11,3.66,3.66,0,0,0-2.82,3.36Z" style="fill: rgb(250, 250, 250); transform-origin: 537.728px 225.927px 0px;" id="elejt8emm2tta" class="animable"></path><path d="M272.74,297.49l.25.57a3.65,3.65,0,0,0,1.31,1.6l.52.35-.58.25a3.57,3.57,0,0,0-1.59,1.31l-.36.51-.24-.57a3.72,3.72,0,0,0-1.31-1.6l-.52-.35.58-.25a3.56,3.56,0,0,0,1.59-1.31Z" style="fill: rgb(224, 224, 224); transform-origin: 272.52px 299.785px 0px;" id="elk3ueflv8bi" class="animable"></path><g id="eltw08uf9dn2h"><circle cx="495.92" cy="201.63" r="13.6" style="fill: rgb(224, 224, 224); transform-origin: 495.92px 201.63px 0px; transform: rotate(-82.61deg);" class="animable"></circle></g><path d="M493.58,205.59a2.22,2.22,0,1,1-1.89-2.51A2.23,2.23,0,0,1,493.58,205.59Z" style="fill: rgb(255, 255, 255); transform-origin: 491.381px 205.279px 0px;" id="el3rr623csxka" class="animable"></path><path d="M491.36,198.81a1.29,1.29,0,1,1-1.1-1.46A1.31,1.31,0,0,1,491.36,198.81Z" style="fill: rgb(255, 255, 255); transform-origin: 490.082px 198.628px 0px;" id="el83xbxztr8u9" class="animable"></path><path d="M482.4,203.07c0,.25-13.12,9.74-10.46,12.53s16.07-1.53,28-8.68,23.17-16.29,20.89-19.45S504,190.68,504,190.68l1.46,1.24s8.82-4.06,11.09-1.69-6.12,9.23-17.47,15.31-22,10-23.29,7.68,7-8.12,7-8.12Z" style="fill: rgb(250, 250, 250); transform-origin: 496.355px 201.524px 0px;" id="el2ck0ps7xnlw" class="animable"></path><path d="M489.83,191.1c.09.15-.93.79-2.18,2.2a12.55,12.55,0,0,0-2.18,13.59c.75,1.73,1.51,2.66,1.38,2.77s-1.07-.69-2.05-2.45a11.94,11.94,0,0,1-1.31-7.61,12,12,0,0,1,1.45-4.06,11.42,11.42,0,0,1,2.17-2.75C488.59,191.42,489.78,191,489.83,191.1Z" style="fill: rgb(255, 255, 255); transform-origin: 486.588px 200.378px 0px;" id="elg37q3ytvebd" class="animable"></path><polygon points="477.02 291.18 478.03 293.86 480.33 295.57 477.65 296.58 475.94 298.88 474.93 296.2 472.63 294.49 475.31 293.48 477.02 291.18" style="fill: rgb(38, 50, 56); transform-origin: 476.48px 295.03px 0px;" id="elq2giqdthnw8" class="animable"></polygon><polygon points="496.6 281.69 497.06 282.92 498.11 283.7 496.88 284.17 496.1 285.22 495.64 283.99 494.59 283.21 495.81 282.75 496.6 281.69" style="fill: rgb(38, 50, 56); transform-origin: 496.35px 283.455px 0px;" id="elhyk2w2tul6" class="animable"></polygon><polygon points="373.52 201.35 374.53 204.03 376.83 205.74 374.15 206.76 372.44 209.06 371.43 206.38 369.13 204.66 371.81 203.65 373.52 201.35" style="fill: rgb(38, 50, 56); transform-origin: 372.98px 205.205px 0px;" id="elz7u8npxcj59" class="animable"></polygon><polygon points="475.03 243.22 476.04 245.9 478.34 247.61 475.66 248.63 473.95 250.93 472.94 248.25 470.64 246.53 473.32 245.52 475.03 243.22" style="fill: rgb(38, 50, 56); transform-origin: 474.49px 247.075px 0px;" id="elh2ko3sm1ied" class="animable"></polygon><polygon points="346.12 182 346.59 183.22 347.64 184 346.41 184.47 345.63 185.52 345.17 184.29 344.12 183.51 345.34 183.05 346.12 182" style="fill: rgb(38, 50, 56); transform-origin: 345.88px 183.76px 0px;" id="eldy7ade4sdmq" class="animable"></polygon><polygon points="365.88 168.94 366.35 170.17 367.4 170.95 366.17 171.42 365.39 172.47 364.93 171.24 363.88 170.46 365.1 170 365.88 168.94" style="fill: rgb(38, 50, 56); transform-origin: 365.64px 170.705px 0px;" id="elb7hjl9iisjl" class="animable"></polygon></g><g id="freepik--Character--inject-9" style="transform-origin: 141.939px 271.799px 0px;" class="animable"><path d="M161.8,339.28v21s-1,2.51-5,11-8.47,34.22-8.47,34.22l8.47,17,26.76-46.22a32.73,32.73,0,0,0,4.37-18.19l-1.29-24.14-24.81,5.34" style="fill: rgb(255, 190, 157); transform-origin: 168.154px 378.225px 0px;" id="elh5ecals0m1" class="animable"></path><path d="M146.79,310.5l-30.7,5.19s3.09,8.41,3.32,9.23c.81,3,2.58,10.77,1.53,18.05-1.32,9.28-2.49,20.55-1.9,25.85s5.88,56.33,5.88,56.33h19l4.22-97.41Z" style="fill: rgb(255, 190, 157); transform-origin: 132.115px 367.825px 0px;" id="el7ozp3x0dtr4" class="animable"></path><path d="M148.3,398.4a2.13,2.13,0,0,1,.12-.59c.11-.43.26-1,.44-1.64.41-1.49,1-3.53,1.69-6s1.59-5.58,2.55-8.92c.47-1.67,1-3.45,1.45-5.26a16,16,0,0,1,1.06-2.75c.4-.9.82-1.81,1.26-2.72.86-1.82,1.73-3.59,2.58-5.29l1.25-2.5a13.06,13.06,0,0,1,1.42-2.33,12.27,12.27,0,0,1,7.92-4.69,12.09,12.09,0,0,1,6.22.74,10.91,10.91,0,0,1,1.53.75,2.65,2.65,0,0,1,.49.35c0,.05-.71-.42-2.09-.91a12.32,12.32,0,0,0-6.09-.57,12,12,0,0,0-7.6,4.62,12.4,12.4,0,0,0-1.35,2.26c-.41.82-.82,1.66-1.25,2.51l-2.56,5.29q-.65,1.36-1.26,2.7a16.14,16.14,0,0,0-1,2.64c-.48,1.87-1,3.61-1.49,5.29l-2.66,8.9c-.76,2.47-1.39,4.5-1.85,6-.22.66-.39,1.2-.53,1.62A2.83,2.83,0,0,1,148.3,398.4Z" style="fill: rgb(235, 153, 110); transform-origin: 163.29px 376.993px 0px;" id="eluzzg7pcfl7" class="animable"></path><path d="M143.65,442c.09-2.39-1.32-8.31-2.47-11a7.47,7.47,0,0,1-.65-4.56l-6.33-2.88a10.71,10.71,0,0,0-6.71-.78c-2.49.54-2.94,1.71-3,3.27-.36,6.56.14,12.23-.22,14.67-.48,3.26,3.23,18.21,3.5,18.3s18.11,3.62,18.11,3.62,2.92-1.77,3.09-4.18S143.56,444.41,143.65,442Z" style="fill: rgb(69, 90, 100); transform-origin: 136.601px 442.598px 0px;" id="elw07iyao6n0o" class="animable"></path><path d="M149,458.52c-1.48-3.41-4.53-6-5.73-9.51-1.51-4.4.11-9.6-2.17-13.65-1.71-3.05-5.57-5.17-9-4.24a9.68,9.68,0,0,0-7.14,5.71c-1,2.59-.76,5.45-.53,8.2q.51,6.29,1,12.55c.36,4.44.83,9.16,3.55,12.69A11.66,11.66,0,0,0,149,458.52Z" style="fill: rgb(38, 50, 56); transform-origin: 137.158px 452.997px 0px;" id="eltoyor43727" class="animable"></path><path d="M150.56,444.72s6.42-5.59,8.55-20.7-1.18-21.58-1.18-21.58-2.29-8.85-7.69-7.77c-3.48.83-5.59,3.18-7.73,5.5Z" style="fill: rgb(69, 90, 100); transform-origin: 151.167px 419.649px 0px;" id="elsc842r0ofoj" class="animable"></path><path d="M152.81,398.6h0a3.76,3.76,0,0,0-1-.68c-3.23-1.42-7.34,0-9.58,2.81s-3,7-2.63,10.75c.25,2.79,1,5.62.37,8.36-.64,2.91-2.66,5.28-4.22,7.81a27.13,27.13,0,0,0-4,12.85c-.2,3.89.58,8.17,4.88,10a9.49,9.49,0,0,0,6.86.14c4.6-1.62,7.53-5.76,9.62-10a48.64,48.64,0,0,0,.77-40.57A4.39,4.39,0,0,0,152.81,398.6Z" style="fill: rgb(38, 50, 56); transform-origin: 144.829px 424.288px 0px;" id="el20zetvsz1lf" class="animable"></path><path d="M135.24,429.7c0,.07-.7-.23-1.83-.49a11.46,11.46,0,0,0-2-.3,6,6,0,0,0-2.4.24,10.45,10.45,0,0,0-3.65,2.54c-.79.84-1,1.53-1.12,1.5a3.1,3.1,0,0,1,.84-1.74,9.34,9.34,0,0,1,3.75-2.79,6.17,6.17,0,0,1,2.62-.23,10.31,10.31,0,0,1,2.06.43A4.15,4.15,0,0,1,135.24,429.7Z" style="fill: rgb(38, 50, 56); transform-origin: 129.74px 430.786px 0px;" id="elgmjtmzqs78i" class="animable"></path><path d="M132.15,426.62c0,.15-1.22,0-2.63.29s-2.44.94-2.53.81a3.81,3.81,0,0,1,2.42-1.32A3.69,3.69,0,0,1,132.15,426.62Z" style="fill: rgb(38, 50, 56); transform-origin: 129.57px 426.985px 0px;" id="elo1zhv7rg2ic" class="animable"></path><path d="M145.54,449.7s-.09.08-.29.2a5.91,5.91,0,0,1-.88.47,10.34,10.34,0,0,1-3.55,1,8.76,8.76,0,0,1-5.32-1.19,8.37,8.37,0,0,1-2.43-2.19,9.84,9.84,0,0,1-1.47-3.18,16.11,16.11,0,0,1-.34-6.68,21.09,21.09,0,0,1,1.58-5.22,33.21,33.21,0,0,1,1.67-3.26,6.31,6.31,0,0,1,.73-1.13,6.18,6.18,0,0,1-.55,1.22c-.38.78-.94,1.89-1.51,3.31a22.49,22.49,0,0,0-1.45,5.15,16.34,16.34,0,0,0,.37,6.47,9.47,9.47,0,0,0,1.38,3,8,8,0,0,0,2.27,2.08A8.49,8.49,0,0,0,140.8,451a11.28,11.28,0,0,0,3.49-.79A8.62,8.62,0,0,1,145.54,449.7Z" style="fill: rgb(69, 90, 100); transform-origin: 138.299px 439.965px 0px;" id="elx4zuq6yd98a" class="animable"></path><path d="M88.4,238.25c.27-.28.56-.55.84-.83h0Z" style="fill: rgb(255, 190, 157); transform-origin: 88.82px 237.835px 0px;" id="elwfnqjohb9bl" class="animable"></path><path d="M89.24,237.42l3.39,2c6.07-1.37,12.13-3.29,17.23-6.84s9.18-9,10-15.11A92.84,92.84,0,0,0,89.24,237.42Z" style="fill: rgb(255, 190, 157); transform-origin: 104.55px 228.445px 0px;" id="elboy6baidm3i" class="animable"></path><path d="M97.5,213.06c1.92-4.41,10.31-22.21,10.31-22.21s-10.7-9.07-17.94-7c0,0-11.32,26.17-12,28.54,0,0-7.26,15.68,0,19.7,0,0,6.89.67,10.5-4.36S97.5,213.06,97.5,213.06Z" style="fill: rgb(255, 190, 157); transform-origin: 91.2267px 207.831px 0px;" id="elnukghtp5c6l" class="animable"></path><path d="M48.13,251.76l64.71-58.15,2.58,26.48L62.48,267.73a10.74,10.74,0,0,1-14.84-.46h0A10.74,10.74,0,0,1,48.13,251.76Z" style="fill: rgb(38, 50, 56); transform-origin: 79.9937px 232.046px 0px;" id="elc2hwxx5uzor" class="animable"></path><path d="M62.65,267.34a9.08,9.08,0,0,0-.32-3.27A16.77,16.77,0,0,0,58,257.49a21.58,21.58,0,0,0-6.63-4.42c-1.89-.82-3.16-1.07-3.13-1.17a3.38,3.38,0,0,1,.9.12,15.24,15.24,0,0,1,2.37.71,19.59,19.59,0,0,1,6.85,4.39A15.82,15.82,0,0,1,62.68,264a6.6,6.6,0,0,1,.21,2.49A2,2,0,0,1,62.65,267.34Z" style="fill: rgb(69, 90, 100); transform-origin: 55.5834px 259.62px 0px;" id="elzvmf4ldlgme" class="animable"></path><path d="M65.09,265.48a9.08,9.08,0,0,0-.32-3.27,16.77,16.77,0,0,0-4.38-6.58,21.58,21.58,0,0,0-6.63-4.42c-1.89-.82-3.15-1.07-3.13-1.17a3.31,3.31,0,0,1,.9.12,15.24,15.24,0,0,1,2.37.71,19.59,19.59,0,0,1,6.85,4.39,15.91,15.91,0,0,1,4.38,6.85,6.77,6.77,0,0,1,.2,2.49A2,2,0,0,1,65.09,265.48Z" style="fill: rgb(69, 90, 100); transform-origin: 57.9987px 257.76px 0px;" id="eljjvxigugt2" class="animable"></path><path d="M112.84,193.61l80-63.68a75.23,75.23,0,0,1,23.82-6.69,1.81,1.81,0,0,1,1.87,2.5c-2.6,7.73-5.24,13.19-10.74,19.55l-90.42,72.42Z" style="fill: rgb(38, 50, 56); transform-origin: 165.756px 170.469px 0px;" id="el6ahdzm6bi9" class="animable"></path><path d="M208.2,144.89c-.09,0-.53-1.15-1.51-2.9a26,26,0,0,0-11.25-10.64c-1.81-.88-3-1.25-3-1.34a2.64,2.64,0,0,1,.86.18,15.58,15.58,0,0,1,2.28.83A23.61,23.61,0,0,1,207,141.81a18,18,0,0,1,1,2.22A3.11,3.11,0,0,1,208.2,144.89Z" style="fill: rgb(69, 90, 100); transform-origin: 200.32px 137.45px 0px;" id="elhkj13sgxkev" class="animable"></path><path d="M220.86,122c-.28-.26-.72-.08-1.05.12l-2.12,1.26.48,1.84,2.29-2a1.91,1.91,0,0,0,.49-.57A.59.59,0,0,0,220.86,122Z" style="fill: rgb(38, 50, 56); transform-origin: 219.35px 123.545px 0px;" id="ellr9z1nruc2" class="animable"></path><path d="M218.66,125.18c-.13,0-.16-.61-.59-1.14s-1-.67-1-.82.17-.14.46-.09a1.55,1.55,0,0,1,.93.59,1.58,1.58,0,0,1,.36,1C218.84,125,218.73,125.19,218.66,125.18Z" style="fill: rgb(69, 90, 100); transform-origin: 217.946px 124.139px 0px;" id="elqegu9p9du5l" class="animable"></path><path d="M178.53,183.83c.31.91,6.38,27,6.38,27S195,237.76,204.39,256l4.55,7.29,8.2-1.33s-11.25-48.64-13.38-52.89-5.93-25.23-5.93-25.23Z" style="fill: rgb(255, 190, 157); transform-origin: 197.835px 223.56px 0px;" id="eljzgldps4yuc" class="animable"></path><path d="M134,89.05l-.17,55.29,23.72,1.13.68-13.45s8.43,1.67,10.6-6.15c1.39-5,1-43.63,1-43.63Z" style="fill: rgb(255, 190, 157); transform-origin: 151.855px 113.855px 0px;" id="el371dh6hufoj" class="animable"></path><path d="M173,86.14c-3.73,1.07-4.54,7.17-4.54,7.17l-5.86,13c-3-2.34-7-2.21-7.76,3-.54,3.79,4.17,4.56,4.17,4.56-2.74,4.67-4.61,8.44-8.6,12.88-4.32,4.81-6.75,5.3-11.44,5.37h-5.17s-2.53-8.21-7.21-28.76c-5.21-22.79,21.75-19.86,26.75-25.68C161.43,68.2,184.73,82.77,173,86.14Z" style="fill: rgb(38, 50, 56); transform-origin: 151.082px 103.321px 0px;" id="elv8doklcfmog" class="animable"></path><path d="M127,105.5c-4.37-2.93-4.77-11.15-2.22-16.07a15.83,15.83,0,0,1,13.46-8.37,6.24,6.24,0,0,0,2.2-.25,6,6,0,0,0,2.36-2.24c3.91-5.07,7.74-10.06,15-10.06a8.33,8.33,0,0,1,4.58,1.13,7.22,7.22,0,0,1,2.75,3.64,15.57,15.57,0,0,1,4.25-1.53,5.26,5.26,0,0,1,4.27,1,3.21,3.21,0,0,1,.67,4.09,5.19,5.19,0,0,1,5.17,4.31c.38,2.42-3.09,4.13-3.46,4.32,0,0,1.91,4-2.64,6.39-1.83,1-4.22-.2-4.49-.34" style="fill: rgb(38, 50, 56); transform-origin: 151.36px 87.0008px 0px;" id="elfh19yp7hx57" class="animable"></path><path d="M144.35,110.82a8.33,8.33,0,0,1-.14,4.19c-.51,2.3-1.54,3.94-1.68,3.86s.61-1.78,1.09-4S144.17,110.82,144.35,110.82Z" style="fill: rgb(69, 90, 100); transform-origin: 143.533px 114.846px 0px;" id="eljdn3n2h5vtm" class="animable"></path><path d="M147.21,108.1a10,10,0,0,1-.22,4,9.89,9.89,0,0,1-1.25,3.85,22,22,0,0,1,.66-4A22.13,22.13,0,0,1,147.21,108.1Z" style="fill: rgb(69, 90, 100); transform-origin: 146.529px 112.025px 0px;" id="elgrswe0mkg9j" class="animable"></path><path d="M155.43,99c.06.08-.61.57-1.47,1.57a15,15,0,0,0-2.55,4.41,36.12,36.12,0,0,0-1.42,5,8,8,0,0,1-.59,2.09,7.54,7.54,0,0,1,.17-2.17,24,24,0,0,1,1.28-5.11,12.78,12.78,0,0,1,2.8-4.48A4.44,4.44,0,0,1,155.43,99Z" style="fill: rgb(69, 90, 100); transform-origin: 152.409px 105.535px 0px;" id="elaju08bbrayw" class="animable"></path><path d="M158.75,92.77c.07,0,.31.53.46,1.49A9.87,9.87,0,0,1,159,98a10,10,0,0,1-1.6,3.42c-.59.78-1.06,1.15-1.11,1.11s1.45-1.9,2.12-4.68S158.57,92.8,158.75,92.77Z" style="fill: rgb(69, 90, 100); transform-origin: 157.794px 97.6515px 0px;" id="eluqdbrwt29h" class="animable"></path><path d="M130.44,106.57c-.08.15-.8-.1-1.62-.56s-1.41-.94-1.33-1.08.81.1,1.62.56S130.52,106.43,130.44,106.57Z" style="fill: rgb(69, 90, 100); transform-origin: 128.965px 105.752px 0px;" id="elp0decvacaej" class="animable"></path><path d="M141.9,100.67c.16,0,.06,1.2-.68,2.41s-1.72,1.84-1.81,1.72.63-.92,1.3-2S141.73,100.63,141.9,100.67Z" style="fill: rgb(69, 90, 100); transform-origin: 140.684px 102.742px 0px;" id="elnnpyq5ejsm" class="animable"></path><path d="M145.43,98.78a4.78,4.78,0,0,1-1.06,2.87c-1,1.45-2.15,2.22-2.24,2.09a26.57,26.57,0,0,1,1.74-2.42A22.59,22.59,0,0,1,145.43,98.78Z" style="fill: rgb(69, 90, 100); transform-origin: 143.78px 101.267px 0px;" id="elq9jzuxh50xk" class="animable"></path><path d="M162.94,75.62s-.44-.33-1.3-.82a8.85,8.85,0,0,0-4-1,10.65,10.65,0,0,0-5.83,1.57,14.43,14.43,0,0,0-5,5.53,24.81,24.81,0,0,0-2,5.19l-.09.34-.32-.16a11.75,11.75,0,0,0-5.29-1.36,12.66,12.66,0,0,0-4.31.65,18.9,18.9,0,0,0-3.52,1.76,3.88,3.88,0,0,1,.8-.7,11,11,0,0,1,2.6-1.4,12.26,12.26,0,0,1,4.43-.8,12.09,12.09,0,0,1,5.56,1.34l-.41.18a24.17,24.17,0,0,1,2-5.32,14.58,14.58,0,0,1,5.21-5.72,10.8,10.8,0,0,1,6.13-1.52,8.39,8.39,0,0,1,4.08,1.25,6.21,6.21,0,0,1,.91.72C162.86,75.51,163,75.61,162.94,75.62Z" style="fill: rgb(69, 90, 100); transform-origin: 147.117px 80.3422px 0px;" id="elabtv7hgf3y9" class="animable"></path><path d="M175.41,78.63s.66-.17,1.37.62a2.35,2.35,0,0,1,.54,1.73,2.66,2.66,0,0,1-1.38,2,3.9,3.9,0,0,1-2.88.4,8.43,8.43,0,0,1-3-1.44,29.26,29.26,0,0,0-2.91-2,12.32,12.32,0,0,0-3.5-1.23,14.76,14.76,0,0,0-7.15.49,19.36,19.36,0,0,0-5.29,2.69A53.74,53.74,0,0,0,147,85.43a6.29,6.29,0,0,1,.94-1.17,22.37,22.37,0,0,1,3-2.74,18.83,18.83,0,0,1,5.36-2.87,14.94,14.94,0,0,1,7.44-.56,12.53,12.53,0,0,1,3.67,1.31,26.77,26.77,0,0,1,2.95,2.06,8,8,0,0,0,2.76,1.4,3.45,3.45,0,0,0,2.56-.28A2.36,2.36,0,0,0,177,80.94a2.19,2.19,0,0,0-.4-1.55A2.12,2.12,0,0,0,175.41,78.63Z" style="fill: rgb(69, 90, 100); transform-origin: 162.165px 81.643px 0px;" id="eljuja54cqqg" class="animable"></path><path d="M113.44,265.21s-.87,22.78,0,29.72-.39,48.8-.39,48.8,32.16,9.36,40.83-1.74c0,0-3.51-50.88-3.86-52.26s-3.18-36.07-3.18-36.07Z" style="fill: rgb(38, 50, 56); transform-origin: 133.465px 300.539px 0px;" id="elv4kw0g03tlb" class="animable"></path><path d="M186.78,253.66c1.89,5.89,5.89,28.09,5.89,28.09v58.83s-27.86,10.06-38.95,5.08l-6.88-59.06V256l22.91-8.93Z" style="fill: rgb(38, 50, 56); transform-origin: 169.755px 297.057px 0px;" id="elhcgghvpyf6" class="animable"></path><path d="M169.1,294.54a5.67,5.67,0,0,1-1.3,0c-.83,0-2-.14-3.52-.26l-11.59-1.06-11.59-1.05-3.52-.33a6.69,6.69,0,0,1-1.28-.18,5.94,5.94,0,0,1,1.3,0c.83,0,2,.07,3.52.16,3,.17,7.09.48,11.62.9s8.61.88,11.57,1.21l3.51.43A7.27,7.27,0,0,1,169.1,294.54Z" style="fill: rgb(69, 90, 100); transform-origin: 152.7px 293.101px 0px;" id="elraae6wks5gg" class="animable"></path><path d="M148.22,292.68c.15,0,1.49,11.84,3,26.47s2.63,26.5,2.49,26.51-1.49-11.83-3-26.46S148.08,292.7,148.22,292.68Z" style="fill: rgb(69, 90, 100); transform-origin: 150.965px 319.17px 0px;" id="elriekuljcrr8" class="animable"></path><path d="M148.63,292.36a18.82,18.82,0,0,1-3.26,2.91,18.39,18.39,0,0,1-3.59,2.49,18.57,18.57,0,0,1,3.26-2.9A18.74,18.74,0,0,1,148.63,292.36Z" style="fill: rgb(69, 90, 100); transform-origin: 145.205px 295.06px 0px;" id="elre9x6hfrldq" class="animable"></path><path d="M191.84,277.9a9.21,9.21,0,0,1-2.22-1.18,31.56,31.56,0,0,1-4.77-3.78,31,31,0,0,1-3.93-4.64,9.55,9.55,0,0,1-1.26-2.18,16.11,16.11,0,0,1,1.56,2,42.56,42.56,0,0,0,4,4.49,41.64,41.64,0,0,0,4.61,3.84A17.63,17.63,0,0,1,191.84,277.9Z" style="fill: rgb(69, 90, 100); transform-origin: 185.75px 272.01px 0px;" id="els87gkr7glua" class="animable"></path><path d="M147.16,287.07a2.93,2.93,0,0,1-.48-.75c-.27-.5-.63-1.25-1-2.2a35.87,35.87,0,0,1-2.25-7.69,36.87,36.87,0,0,1-.49-8c.06-1,.15-1.85.24-2.42a2.94,2.94,0,0,1,.19-.87c.08,0,0,1.27-.06,3.3a44.48,44.48,0,0,0,.64,7.89A43.8,43.8,0,0,0,146,284C146.7,285.89,147.23,287,147.16,287.07Z" style="fill: rgb(69, 90, 100); transform-origin: 145.032px 276.105px 0px;" id="ell4gxgj03nh" class="animable"></path><path d="M181,205.49c-.28-.84-3.38-18.59-3.38-18.59l22.81-.56s-10-39.13-15.47-42c-8.46-4.47-27.06-5-27.06-5H134s-26.48,7.33-31.26,15.21L85.84,187l22,8.06,3.81-4.69,3.79,33.14s-2.25,29.86-2.25,34.36.28,7.33.28,7.33,49.77-13.51,61.88-9.57,13.92,7.64,13.92,7.64,1.09-13.28-1.73-18.35Z" style="fill: rgb(63, 84, 255); transform-origin: 143.135px 202.27px 0px;" id="elzsvgdzhg1pr" class="animable"></path><path d="M112.15,195.07c-.08,0-.31-1.58-.82-4.11a74.81,74.81,0,0,0-2.65-9.74,81.54,81.54,0,0,0-3.94-9.29l-1.39-2.74a5,5,0,0,1-.47-1,4.62,4.62,0,0,1,.65.93c.39.61.92,1.52,1.54,2.67a65.47,65.47,0,0,1,4.1,9.29,60.31,60.31,0,0,1,2.53,9.84c.21,1.29.34,2.33.4,3.05A4.22,4.22,0,0,1,112.15,195.07Z" style="fill: rgb(38, 50, 56); transform-origin: 107.523px 181.63px 0px;" id="el3ss3m2av0bj" class="animable"></path><path d="M159.2,207.56a1.58,1.58,0,0,1-.12.49c-.13.37-.28.82-.46,1.38s-.46,1.32-.8,2.15-.69,1.79-1.16,2.82c-.89,2.08-2.06,4.5-3.49,7.12a95.53,95.53,0,0,1-5.12,8.26c-2,2.82-4,5.38-6,7.64s-3.85,4.17-5.5,5.72c-.8.79-1.58,1.45-2.25,2.05s-1.26,1.09-1.75,1.49l-1.14.9a2.38,2.38,0,0,1-.41.29s.11-.14.35-.37l1.07-1c.47-.41,1-.93,1.69-1.55s1.4-1.29,2.19-2.1c1.6-1.57,3.44-3.52,5.39-5.77s4-4.82,5.93-7.62,3.67-5.6,5.13-8.19,2.65-5,3.57-7c.49-1,.87-2,1.23-2.78s.65-1.53.88-2.12L159,208A2.23,2.23,0,0,1,159.2,207.56Z" style="fill: rgb(38, 50, 56); transform-origin: 145.1px 227.715px 0px;" id="el50micn3yoi3" class="animable"></path><path d="M177.85,159.74c.09,0-.27,1.58-.53,4.12a84.61,84.61,0,0,0-.3,10c.1,3.91.34,7.44.55,10,.1,1.19.18,2.2.25,3a4.36,4.36,0,0,1,0,1.12,4.76,4.76,0,0,1-.24-1.09c-.12-.71-.26-1.74-.41-3-.31-2.56-.61-6.1-.71-10a65.4,65.4,0,0,1,.45-10.05,30.38,30.38,0,0,1,.57-3A4.7,4.7,0,0,1,177.85,159.74Z" style="fill: rgb(38, 50, 56); transform-origin: 177.145px 173.86px 0px;" id="elf9x8ydu76j5" class="animable"></path><g id="elepo4kow6o3h"><g style="opacity: 0.3; transform-origin: 108.835px 184.86px 0px;" class="animable"><path d="M106,174.65s1.42,13.63,1.86,20.42l3.81-4.69S107.88,176.36,106,174.65Z" id="el38i2pvsvbri" style="transform-origin: 108.835px 184.86px 0px;" class="animable"></path></g></g><g id="elfba3i345pya"><g style="opacity: 0.3; transform-origin: 143.16px 224.885px 0px;" class="animable"><path d="M141.1,222.76a75.94,75.94,0,0,0-6.78,13.85A61.44,61.44,0,0,0,152,213.16C147.38,214.92,143.72,218.6,141.1,222.76Z" id="el7otlzdpx20d" style="transform-origin: 143.16px 224.885px 0px;" class="animable"></path></g></g><path d="M195.44,217.1a6.11,6.11,0,0,1-4.62-.74,9.51,9.51,0,0,1,2.32.32A8.91,8.91,0,0,1,195.44,217.1Z" style="fill: rgb(235, 153, 110); transform-origin: 193.13px 216.813px 0px;" id="elvwe5ea1xrw" class="animable"></path><path d="M216,258.67A115.23,115.23,0,0,0,223,269.86l4.93,10.3v10.3s-2.36,0-2.71-1.41c0,0-2.13-.15-2.48-3.55,0,0-1.84-.43-2.2-3.15a43.12,43.12,0,0,1-.35-4.92L218.33,274l-2-.15a33.41,33.41,0,0,1,2.27,5.11c.14,1.06.36,3.46-1.13,3.43s-2.77-2.58-3-3.58a15.51,15.51,0,0,0-2.62-5.17c-1-.92-2.76-3.19-2.9-4.46s0-7.8,0-7.8Z" style="fill: rgb(255, 190, 157); transform-origin: 218.409px 274.565px 0px;" id="el7lv04053pww" class="animable"></path><path d="M216.84,274.35a5,5,0,0,1-1.48-.82,12.3,12.3,0,0,1-3.05-2.75,6.64,6.64,0,0,1-1.38-3.89,3.71,3.71,0,0,1,.25-1.68,10.24,10.24,0,0,1,.12,1.66,7.28,7.28,0,0,0,1.42,3.6,16.85,16.85,0,0,0,2.86,2.77C216.38,273.88,216.89,274.29,216.84,274.35Z" style="fill: rgb(235, 153, 110); transform-origin: 213.88px 269.78px 0px;" id="el4m24zg30j3n" class="animable"></path><path d="M220.74,274.31a9.15,9.15,0,0,1-3-.09,9.4,9.4,0,0,1-3-.61,8.91,8.91,0,0,1,3,.09A9.2,9.2,0,0,1,220.74,274.31Z" style="fill: rgb(235, 153, 110); transform-origin: 217.74px 273.958px 0px;" id="elxd7ichqd8z" class="animable"></path><path d="M221.87,276a4.89,4.89,0,0,1,1.3,1.53A12.4,12.4,0,0,1,225,282a28.5,28.5,0,0,1,.27,4.84,10.1,10.1,0,0,1-.07,2,6,6,0,0,1-.3-2,47.57,47.57,0,0,0-.41-4.76A18.9,18.9,0,0,0,221.87,276Z" style="fill: rgb(235, 153, 110); transform-origin: 223.58px 282.42px 0px;" id="el1y9mkasz2o4" class="animable"></path><path d="M222.67,284.58c-.06,0-.3-.35-.44-1s-.16-1.64-.42-2.58a10.58,10.58,0,0,0-1.32-2.21c-.36-.63-.3-1.13-.23-1.12s.14.41.54.92c.2.26.47.55.76.91a3.74,3.74,0,0,1,.75,1.35,13.71,13.71,0,0,1,.29,2.68C222.64,284.15,222.74,284.55,222.67,284.58Z" style="fill: rgb(235, 153, 110); transform-origin: 221.451px 281.125px 0px;" id="elnwo0h4qjc6q" class="animable"></path><path d="M238.77,105.8c-1.28-1.77-4.19-1.48-5.83,0s-2.34,3.66-3.06,5.73-1.64,4.24-3.48,5.42c2.86-1.18,6.43-3.48,9-4.57S240.43,108.09,238.77,105.8Z" style="fill: rgb(63, 84, 255); transform-origin: 232.855px 110.764px 0px;" id="elv4o2ie9ex2m" class="animable"></path><path d="M224.85,121a13.56,13.56,0,0,1,6.88-1.23,8.19,8.19,0,0,1,4.62,2.83,3.27,3.27,0,0,1,.73,1.39,1.5,1.5,0,0,1-.47,1.44,1.86,1.86,0,0,1-1.39.27,9.86,9.86,0,0,1-4.51-2.4,12.74,12.74,0,0,0-5.86-2.3" style="fill: rgb(63, 84, 255); transform-origin: 230.982px 122.73px 0px;" id="elvx6lb9fxf3g" class="animable"></path></g><defs>     <filter id="active" height="200%">         <feMorphology in="SourceAlpha" result="DILATED" operator="dilate" radius="2"></feMorphology>                <feFlood flood-color="#32DFEC" flood-opacity="1" result="PINK"></feFlood>        <feComposite in="PINK" in2="DILATED" operator="in" result="OUTLINE"></feComposite>        <feMerge>            <feMergeNode in="OUTLINE"></feMergeNode>            <feMergeNode in="SourceGraphic"></feMergeNode>        </feMerge>    </filter>    <filter id="hover" height="200%">        <feMorphology in="SourceAlpha" result="DILATED" operator="dilate" radius="2"></feMorphology>                <feFlood flood-color="#ff0000" flood-opacity="0.5" result="PINK"></feFlood>        <feComposite in="PINK" in2="DILATED" operator="in" result="OUTLINE"></feComposite>        <feMerge>            <feMergeNode in="OUTLINE"></feMergeNode>            <feMergeNode in="SourceGraphic"></feMergeNode>        </feMerge>            <feColorMatrix type="matrix" values="0   0   0   0   0                0   1   0   0   0                0   0   0   0   0                0   0   0   1   0 "></feColorMatrix>    </filter></defs></svg>