<?xml version="1.0" encoding="utf-8"?>
<!-- Generator: Adobe Illustrator 26.0.3, SVG Export Plug-In . SVG Version: 6.00 Build 0)  -->
<svg version="1.1" id="Laag_1" xmlns="http://www.w3.org/2000/svg" xmlns:xlink="http://www.w3.org/1999/xlink" x="0px" y="0px"
	 width="60.8px" height="69.9px" viewBox="0 0 60.8 69.9" style="enable-background:new 0 0 60.8 69.9;" xml:space="preserve">
<path d="M55,23.1c0.8-0.5,1.5-1.1,2.1-1.7c4.8-4.9,4.8-12.7,0-17.6c-4.9-4.8-12.7-4.8-17.6,0c-2.3,2.3-3.6,5.5-3.6,8.7V18H25.1v-5.3
	c6.2-1,10.8-6.4,10.8-12.7h-7.1c0,3.2-2.6,5.8-5.8,5.8c-0.5-0.7-1-1.4-1.7-2C16.5-1.1,8.7-1,3.8,3.9C-1,8.8-0.9,16.6,4,21.5
	c2.3,2.3,5.4,3.6,8.7,3.6h5.4v10.7h-5.2C11.8,29.6,6.5,25,0.2,25v7.1c3.1,0,5.7,2.5,5.8,5.6c-0.8,0.5-1.5,1.1-2.1,1.7
	C-1,44.3-0.9,52.1,3.9,57c4.9,4.8,12.7,4.8,17.6,0c2.3-2.3,3.6-5.4,3.6-8.7v-5.4h10.8V48c-6.2,1-10.8,6.4-10.8,12.7h7.1
	c0-3.1,2.5-5.7,5.7-5.8c0.5,0.8,1.1,1.5,1.8,2.2c4.9,4.8,12.8,4.8,17.6-0.1C62,52,61.9,44.1,57,39.3c-2.3-2.3-5.4-3.6-8.7-3.6h-5.4
	V25h5.2c1,6.2,6.4,10.7,12.6,10.7v-7.1C57.6,28.7,55.1,26.2,55,23.1z M18,48.2c0,3-2.4,5.4-5.4,5.4c-3,0-5.4-2.4-5.4-5.4
	c0-3,2.4-5.4,5.4-5.4H18V48.2z M18,17.9h-5.4c-3,0-5.4-2.4-5.4-5.4c0-1.4,0.6-2.8,1.6-3.8c1-1,2.4-1.6,3.8-1.6c3,0,5.3,2.4,5.4,5.4
	L18,17.9z M25.1,35.7V25h10.8v10.7L25.1,35.7z M48.3,42.8c3,0,5.4,2.4,5.4,5.4c0,1.4-0.6,2.8-1.6,3.8c-2.1,2.1-5.4,2.1-7.5,0
	c0,0,0,0,0,0c-1-1-1.6-2.4-1.6-3.8v-5.4H48.3z M42.9,12.6c0-3,2.4-5.4,5.4-5.4c3,0,5.4,2.4,5.4,5.4c0,3-2.4,5.4-5.4,5.4h-5.4V12.6z"
	/>
<g>
	<path d="M0,68.9L0.9,68c0.4,0.4,0.9,0.7,1.5,0.7c0.7,0,1-0.3,1-0.7c0-0.3-0.1-0.6-0.7-0.7l-0.6-0.1c-1.3-0.2-1.9-0.8-1.9-1.8
		c0-1.1,0.9-1.9,2.3-1.9c0.8,0,1.6,0.3,2.1,0.9l-0.9,0.9c-0.3-0.4-0.8-0.6-1.3-0.6c-0.6,0-0.9,0.2-0.9,0.6c0,0.4,0.2,0.6,0.7,0.7
		l0.6,0.1c1.3,0.2,1.9,0.8,1.9,1.8c0,1.2-0.9,2-2.4,2C1.4,69.9,0.6,69.6,0,68.9z"/>
	<path d="M7.1,63.6v3.8c0,0.9,0.3,1.3,1.1,1.3s1.1-0.4,1.1-1.3v-3.8h1.3v3.6c0,1.8-0.7,2.6-2.4,2.6s-2.4-0.8-2.4-2.6v-3.6H7.1z"/>
	<path d="M13.2,69.8h-1.3v-6.1h2.9c1,0,1.8,0.7,1.9,1.7c0,0.1,0,0.2,0,0.2c0.1,0.8-0.4,1.5-1.1,1.8l1.2,2.4h-1.5l-1.1-2.3h-1
		L13.2,69.8z M14.6,66.4c0.3,0,0.6-0.2,0.6-0.5c0,0,0-0.1,0-0.1v-0.4c0-0.3-0.2-0.6-0.5-0.6c0,0-0.1,0-0.1,0h-1.4v1.6L14.6,66.4z"/>
	<path d="M18.9,69.8l-2-6.1h1.4l0.9,2.9l0.5,1.9h0l0.5-1.9l0.9-2.9h1.3l-2,6.1H18.9z"/>
	<path d="M23.2,69.8v-6.1h4.2v1.2h-2.8v1.3h2.4v1.2h-2.4v1.3h2.8v1.2L23.2,69.8z"/>
	<path d="M30,69.8v-2.4l-2.1-3.7h1.5l1.3,2.4h0l1.3-2.4h1.5l-2.1,3.7v2.4L30,69.8z"/>
	<path d="M35,69.8h-0.7v-6.1h2.4c1,0,1.7,0.8,1.7,1.8c0,0.8-0.5,1.4-1.2,1.6l1.4,2.7h-0.8l-1.3-2.6H35L35,69.8z M36.7,66.5
		c0.5,0.1,0.9-0.3,0.9-0.7c0-0.1,0-0.1,0-0.2v-0.5c0-0.5-0.3-0.8-0.8-0.9c-0.1,0-0.1,0-0.2,0H35v2.2L36.7,66.5z"/>
	<path d="M39.4,66.7c0-2.1,1-3.2,2.6-3.2s2.6,1.1,2.6,3.2s-1,3.2-2.6,3.2S39.4,68.8,39.4,66.7z M43.9,67.2v-1c0.1-1-0.6-1.9-1.6-2
		c-1-0.1-1.9,0.6-2,1.6c0,0.1,0,0.2,0,0.4v1c-0.1,1,0.6,1.9,1.6,2c1,0.1,1.9-0.6,2-1.6C43.9,67.5,43.9,67.4,43.9,67.2z"/>
	<path d="M45.6,66.8c0-2.1,0.9-3.2,2.5-3.2c0.9,0,1.8,0.5,2.1,1.3l-0.6,0.4c-0.2-0.6-0.8-1.1-1.5-1c-1.1,0-1.7,0.8-1.7,2.1v0.9
		c0,1.3,0.6,2,1.7,2c0.7,0,1.4-0.4,1.6-1.1l0.6,0.4c-0.4,0.9-1.2,1.4-2.2,1.4C46.6,69.9,45.6,68.8,45.6,66.8z"/>
	<path d="M53,66.8l-0.9,1v2.1h-0.7v-6.1h0.7v3.3h0l0.9-1.1l1.9-2.2h0.9l-2.3,2.6l2.4,3.5H55L53,66.8z"/>
	<path d="M56.4,68.8l0.5-0.5c0.4,0.6,1,0.9,1.7,0.9c0.9,0,1.4-0.5,1.4-1.2c0-0.6-0.3-0.9-1.1-1.1l-0.5-0.1c-1.1-0.3-1.7-0.7-1.7-1.7
		c0-1.1,0.8-1.7,2-1.7c0.8,0,1.6,0.3,2,1l-0.6,0.4c-0.3-0.5-0.9-0.8-1.5-0.8c-0.8,0-1.3,0.3-1.3,1c0,0.6,0.4,0.8,1.2,1l0.5,0.1
		c1.2,0.3,1.7,0.8,1.7,1.7c0,1.1-0.8,1.8-2.1,1.8C57.7,69.9,56.9,69.5,56.4,68.8z"/>
</g>
</svg>
