<?xml version="1.0" encoding="utf-8"?>
<!-- Generator: Adobe Illustrator 26.0.3, SVG Export Plug-In . SVG Version: 6.00 Build 0)  -->
<svg version="1.1" id="Laag_1" xmlns="http://www.w3.org/2000/svg" xmlns:xlink="http://www.w3.org/1999/xlink" x="0px" y="0px"
	 width="24px" height="24px" viewBox="0 0 24 24" fill="#D60C8C" style="enable-background:new #D60C8C;" xml:space="preserve">
<path id="Path_116" d="M13,0.3c-0.6-0.4-1.3-0.4-1.9,0L1,8C0.4,8.5,0,9.2,0,10v12.8C0,23.4,0.5,24,1.2,24h5.7c0.7,0,1.2-0.6,1.2-1.2
	v-7.9c0-0.7,0.5-1.2,1.2-1.2h5.4c0.7,0,1.2,0.6,1.2,1.2v7.9c0,0.7,0.5,1.2,1.2,1.2h5.7c0.7,0,1.2-0.6,1.2-1.2V10c0-0.8-0.4-1.5-1-2
	L13,0.3z"/>
</svg>
