<?xml version="1.0" encoding="utf-8"?>
<!-- Generator: Adobe Illustrator 26.0.3, SVG Export Plug-In . SVG Version: 6.00 Build 0)  -->
<svg version="1.1" id="Laag_1" xmlns="http://www.w3.org/2000/svg" xmlns:xlink="http://www.w3.org/1999/xlink" x="0px" y="0px"
	 width="217.9px" height="61.6px" viewBox="0 0 217.9 61.6" style="enable-background:new 0 0 217.9 61.6;" xml:space="preserve">
<style type="text/css">
	.st0{fill:#FFFFFF;}
</style>
<path class="st0" d="M54.8,23.5c0.8-0.5,1.5-1.1,2.1-1.7c4.8-4.9,4.8-12.7,0-17.6c-4.9-4.8-12.7-4.8-17.6,0C37,6.6,35.7,9.7,35.7,13
	v5.4H24.9v-5.3c6.2-1,10.8-6.4,10.8-12.7h-7.1c0,3.2-2.6,5.8-5.8,5.8c-0.5-0.7-1-1.4-1.7-2C16.3-0.6,8.5-0.5,3.6,4.3
	c-4.8,4.9-4.8,12.8,0.1,17.6c2.3,2.3,5.4,3.6,8.7,3.6h5.4v10.7h-5.2C11.6,30,6.3,25.5,0,25.5v7.1c3.1,0,5.7,2.5,5.8,5.6
	c-0.8,0.5-1.5,1.1-2.1,1.7c-4.8,4.9-4.8,12.7,0,17.6c4.9,4.8,12.7,4.8,17.6,0c2.3-2.3,3.6-5.4,3.6-8.7v-5.4h10.8v5.1
	c-6.2,1-10.8,6.4-10.8,12.7h7.1c0-3.1,2.5-5.7,5.7-5.8c0.5,0.8,1.1,1.5,1.8,2.2c4.9,4.8,12.8,4.8,17.6-0.1
	c4.8-4.9,4.8-12.8-0.1-17.6c-2.3-2.3-5.4-3.6-8.7-3.6h-5.4V25.5h5.2c1,6.2,6.4,10.7,12.6,10.7v-7.1C57.4,29.1,54.9,26.7,54.8,23.5z
	 M17.8,48.7c0,3-2.4,5.4-5.4,5.4c-3,0-5.4-2.4-5.4-5.4c0-3,2.4-5.4,5.4-5.4h5.4V48.7z M17.8,18.4h-5.4c-3,0-5.4-2.4-5.4-5.4
	c0-1.4,0.6-2.8,1.6-3.8c1-1,2.4-1.6,3.8-1.6c3,0,5.3,2.4,5.4,5.4L17.8,18.4z M24.9,36.2V25.5h10.8v10.7L24.9,36.2z M48.1,43.3
	c3,0,5.4,2.4,5.4,5.4c0,1.4-0.6,2.8-1.6,3.8c-2.1,2.1-5.4,2.1-7.5,0c0,0,0,0,0,0c-1-1-1.6-2.4-1.6-3.8v-5.4H48.1z M42.7,13
	c0-3,2.4-5.4,5.4-5.4c3,0,5.4,2.4,5.4,5.4c0,3-2.4,5.4-5.4,5.4h-5.4V13z"/>
<g>
	<path class="st0" d="M73.7,61.1h-3.3V33.9h10.8c4.8,0,7.6,2.8,7.6,7.7c0,4-1.9,6.7-5.5,7.5l6.2,12H86l-5.9-11.7h-6.4V61.1z
		 M81.3,46.6c2.6,0,4.1-1.4,4.1-3.9v-2c0-2.5-1.5-3.9-4.1-3.9h-7.6v9.8L81.3,46.6z"/>
	<path class="st0" d="M93.7,47.5c0-9.1,4.5-14.1,11.5-14.1s11.5,5,11.5,14.1s-4.5,14.1-11.5,14.1S93.7,56.6,93.7,47.5z M113.2,49.7
		v-4.5c0-5.4-3.3-8.9-8-8.9s-8,3.5-8,8.9v4.5c0,5.4,3.3,8.9,8,8.9S113.2,55.1,113.2,49.7L113.2,49.7z"/>
	<path class="st0" d="M121.3,47.6c0-9.1,4.1-14.2,11-14.2c4.1-0.2,7.8,2.2,9.4,6l-2.7,1.6c-1-2.9-3.7-4.7-6.7-4.6
		c-4.7,0-7.4,3.7-7.4,9.3v4.1c0,5.6,2.8,9,7.4,9c3.2,0.1,6-1.9,6.9-4.9l2.6,1.6c-1.6,3.9-5.4,6.3-9.6,6.2
		C125.4,61.6,121.3,56.7,121.3,47.6z"/>
	<path class="st0" d="M154,47.7l-3.9,4.3v9.1h-3.3V33.9h3.3v14.5h0.1l3.9-4.7l8.2-9.8h4l-10.1,11.7l10.8,15.6H163L154,47.7z"/>
	<path class="st0" d="M169.4,56.8l2.4-2c1.6,2.5,4.4,3.9,7.3,3.9c3.9,0,6-2,6-5.1c0-2.6-1.4-3.9-5-4.7l-2.2-0.5
		c-5-1.1-7.7-3.3-7.7-7.5c0-4.8,3.7-7.5,9-7.5c3.6-0.2,7,1.5,9,4.4l-2.5,1.8c-1.5-2.2-4-3.5-6.7-3.4c-3.5,0-5.6,1.5-5.6,4.4
		c0,2.6,1.7,3.7,5.1,4.5l2.2,0.5c5.3,1.2,7.6,3.5,7.6,7.6c0,5-3.5,8.2-9.4,8.2C175.2,61.7,171.6,59.9,169.4,56.8z"/>
</g>
<g>
	<path class="st0" d="M68.9,23.8l3.9-3.9c1.7,2,4.2,3.1,6.8,3.1c2.9,0,4.3-1.3,4.3-3.3c0-1.5-0.6-2.6-3.2-2.9l-2.7-0.4
		c-5.7-0.7-8.3-3.5-8.3-8.1C69.7,3.4,73.6,0,80,0c3.6-0.2,7,1.2,9.4,3.8l-3.9,4c-1.4-1.7-3.6-2.7-5.9-2.6c-2.7,0-3.9,1-3.9,2.7
		c0,1.9,1,2.6,3.2,2.9l2.7,0.4c5.6,0.9,8.3,3.4,8.3,8.1c0,5.2-3.8,8.9-10.6,8.9C75.3,28.3,71.5,26.7,68.9,23.8z"/>
	<path class="st0" d="M100.4,0.5v16.7c0,3.8,1.4,5.7,4.9,5.7c3.5,0,4.9-1.9,4.9-5.7V0.5h5.8v16.1c0,8-2.9,11.6-10.7,11.6
		s-10.7-3.6-10.7-11.6V0.5H100.4z"/>
	<path class="st0" d="M127.8,27.7h-5.9V0.5h12.9c5,0,8.2,3.5,8.2,8.7c0,3.7-1.6,6.6-5,7.8l5.3,10.7h-6.6l-4.8-10h-4.3V27.7z
		 M134,12.7c1.4,0.2,2.7-0.8,2.8-2.2c0-0.2,0-0.3,0-0.5V8.3c0.1-1.4-0.9-2.6-2.3-2.7c-0.2,0-0.3,0-0.5,0h-6.2v7.1L134,12.7z"/>
	<path class="st0" d="M153.3,27.7l-8.8-27.2h6l4.1,13.1l2.1,8.5h0.1l2.1-8.5L163,0.5h5.8l-8.9,27.2H153.3z"/>
	<path class="st0" d="M172.3,27.7V0.5h18.5v5.3h-12.6v5.6H189v5.2h-10.8v5.9h12.6v5.3L172.3,27.7z"/>
	<path class="st0" d="M202.7,27.7V17l-9.3-16.6h6.6l5.9,10.8h0.1l5.6-10.8h6.4L208.6,17v10.7L202.7,27.7z"/>
</g>
</svg>
